<?xml version="1.0" encoding="utf-8"?>
<!-- Generator: Adobe Illustrator 27.5.0, SVG Export Plug-In . SVG Version: 6.00 Build 0)  -->
<svg version="1.1" xmlns="http://www.w3.org/2000/svg" xmlns:xlink="http://www.w3.org/1999/xlink" x="0px" y="0px"
	 viewBox="0 0 500 500" style="enable-background:new 0 0 500 500;" xml:space="preserve">
<g id="Background_Simple">
	<g>
		<path style="fill:#92E3A9;" d="M485.643,265.12c0.082-1.078,0.167-2.15,0.306-3.219c1.497-11.491,8.481-97.868-100.024-206.504
			C269.308-61.36,141.865,69.78,119.851,104.058s-28.427,86.918-45.419,52.279c-10.505-21.414,16.876-48.228-21.908-37.027
			c-24.884,7.187-71.103,70.778-33.215,180.04c37.888,109.262,144.305,192.614,246.575,186.535
			c131.514-7.818,208.952-103.196,202.805-110.287c-6.147-7.091-55.13,14.063-44.368-0.671
			C434.915,360.422,482.553,305.661,485.643,265.12z"/>
		<path style="opacity:0.8;fill:#FFFFFF;" d="M485.643,265.12c0.082-1.078,0.167-2.15,0.306-3.219
			c1.497-11.491,8.481-97.868-100.024-206.504C269.308-61.36,141.865,69.78,119.851,104.058s-28.427,86.918-45.419,52.279
			c-10.505-21.414,16.876-48.228-21.908-37.027c-24.884,7.187-71.103,70.778-33.215,180.04
			c37.888,109.262,144.305,192.614,246.575,186.535c131.514-7.818,208.952-103.196,202.805-110.287
			c-6.147-7.091-55.13,14.063-44.368-0.671C434.915,360.422,482.553,305.661,485.643,265.12z"/>
	</g>
</g>
<g id="Line">
	
		<line style="fill:none;stroke:#263238;stroke-linecap:round;stroke-linejoin:round;stroke-miterlimit:10;" x1="21.362" y1="487.501" x2="481.644" y2="487.501"/>
</g>
<g id="Clouds">
	<path style="fill:none;stroke:#263238;stroke-linecap:round;stroke-linejoin:round;stroke-miterlimit:10;" d="M397.157,193.775
		c0,0-6.483-12.966-22.042-13.614c-15.559-0.648-21.393,22.042-25.283,23.338c-3.89,1.297-15.559-7.779-25.283-5.186
		c-9.724,2.593-11.021,8.428-13.614,10.372c-2.593,1.945-7.131-2.593-12.966-1.945c-5.835,0.648-12.317,8.428-12.317,8.428
		l-15.559,2.593h170.499c0,0-9.724-16.855-16.855-20.745c-7.131-3.89-15.559,2.593-18.8,2.593
		C401.695,199.609,397.157,193.775,397.157,193.775z"/>
	<path style="fill:none;stroke:#263238;stroke-linecap:round;stroke-linejoin:round;stroke-miterlimit:10;" d="M243.724,42.354
		c0,0-4.583-9.167-15.583-9.625c-11-0.458-15.125,15.583-17.875,16.5c-2.75,0.917-11-5.5-17.875-3.667
		c-6.875,1.833-7.792,5.958-9.625,7.333c-1.833,1.375-5.042-1.833-9.167-1.375c-4.125,0.458-8.708,5.958-8.708,5.958l-11,1.833
		h120.543c0,0-6.875-11.917-11.917-14.667s-11,1.833-13.292,1.833C246.932,46.479,243.724,42.354,243.724,42.354z"/>
	<path style="fill:none;stroke:#263238;stroke-linecap:round;stroke-linejoin:round;stroke-miterlimit:10;" d="M472.69,77.519
		c0,0-2.403-4.806-8.171-5.047c-5.767-0.24-7.93,8.171-9.372,8.651c-1.442,0.481-5.768-2.884-9.372-1.923
		c-3.605,0.961-4.085,3.124-5.047,3.845c-0.961,0.721-2.643-0.961-4.806-0.721c-2.163,0.24-4.566,3.124-4.566,3.124l-5.767,0.961
		h63.202c0,0-3.605-6.248-6.248-7.69c-2.643-1.442-5.767,0.961-6.969,0.961S472.69,77.519,472.69,77.519z"/>
	<path style="fill:none;stroke:#263238;stroke-linecap:round;stroke-linejoin:round;stroke-miterlimit:10;" d="M67.914,130.097
		c0,0-2.403-4.806-8.171-5.047c-5.768-0.24-7.93,8.171-9.372,8.651c-1.442,0.481-5.768-2.884-9.372-1.923
		c-3.605,0.961-4.085,3.124-5.046,3.845c-0.961,0.721-2.644-0.961-4.806-0.721c-2.163,0.24-4.566,3.124-4.566,3.124l-5.767,0.961
		h63.203c0,0-3.605-6.248-6.248-7.69c-2.643-1.442-5.768,0.961-6.969,0.961S67.914,130.097,67.914,130.097z"/>
</g>
<g id="Trees">
	<g>
		<path style="fill:#92E3A9;" d="M262.744,356.677c0,31.685-18.744,57.37-41.865,57.37c-23.121,0-41.865-25.685-41.865-57.37
			s18.743-140.583,41.865-140.583C244.001,216.094,262.744,324.992,262.744,356.677z"/>
		<path style="opacity:0.5;fill:#FFFFFF;" d="M262.744,356.677c0,31.685-18.744,57.37-41.865,57.37
			c-23.121,0-41.865-25.685-41.865-57.37s18.743-140.583,41.865-140.583C244.001,216.094,262.744,324.992,262.744,356.677z"/>
		<polygon style="fill:#878787;" points="244.354,373.253 231.677,377.942 234.221,370.311 228.16,379.242 222.109,381.481 
			221.677,356.423 243.7,327.164 231.897,338.966 233.893,330.76 228.248,342.616 221.555,349.309 220.879,310.16 218.481,367.258 
			197.611,345.142 209.074,360.726 198.265,359.525 211.617,364.182 218.232,373.174 217.075,400.703 209.378,395.48 
			216.836,406.401 213.301,487.501 223.989,487.501 222.178,385.478 		"/>
		<g>
			<path style="fill:#FFFFFF;" d="M243.911,310.284c0,0,0.387,3.846-1.715,6.67c-2.102,2.824-5.898,3.555-5.898,3.555
				s-0.387-3.846,1.715-6.67C240.115,311.016,243.911,310.284,243.911,310.284z"/>
			<path style="fill:#FFFFFF;" d="M256.529,328.012c0,0,0.387,3.846-1.715,6.67c-2.102,2.824-5.898,3.555-5.898,3.555
				s-0.387-3.846,1.715-6.67C252.733,328.744,256.529,328.012,256.529,328.012z"/>
			<path style="fill:#FFFFFF;" d="M256.523,362.529c0,0-0.93,3.752-3.86,5.703c-2.93,1.951-6.751,1.362-6.751,1.362
				s0.93-3.752,3.86-5.703C252.703,361.94,256.523,362.529,256.523,362.529z"/>
			<path style="fill:#FFFFFF;" d="M187.226,362.529c0,0,0.93,3.752,3.86,5.703c2.93,1.951,6.75,1.362,6.75,1.362
				s-0.93-3.752-3.86-5.703C191.047,361.94,187.226,362.529,187.226,362.529z"/>
			<path style="fill:#FFFFFF;" d="M241.95,348.201c0,0,0.387,3.846-1.715,6.67c-2.102,2.824-5.898,3.555-5.898,3.555
				s-0.387-3.846,1.715-6.67C238.154,348.933,241.95,348.201,241.95,348.201z"/>
			<path style="fill:#FFFFFF;" d="M238.681,290.999c0,0,0.387,3.846-1.715,6.67c-2.102,2.823-5.898,3.555-5.898,3.555
				s-0.387-3.846,1.715-6.67C234.885,291.73,238.681,290.999,238.681,290.999z"/>
			<path style="fill:#FFFFFF;" d="M231.163,305.708c0,0,0.387,3.846-1.715,6.67c-2.102,2.824-5.898,3.555-5.898,3.555
				s-0.387-3.846,1.715-6.67C227.367,306.439,231.163,305.708,231.163,305.708z"/>
			<path style="fill:#FFFFFF;" d="M249.011,294.998c0,0,0.387,3.846-1.715,6.67c-2.102,2.823-5.898,3.555-5.898,3.555
				s-0.387-3.846,1.715-6.67C245.215,295.73,249.011,294.998,249.011,294.998z"/>
			<path style="fill:#FFFFFF;" d="M191.014,294.998c0,0-0.387,3.846,1.715,6.67c2.102,2.823,5.898,3.555,5.898,3.555
				s0.387-3.846-1.715-6.67C194.809,295.73,191.014,294.998,191.014,294.998z"/>
			<path style="fill:#FFFFFF;" d="M240.315,273.02c0,0,0.387,3.846-1.715,6.67c-2.102,2.824-5.898,3.555-5.898,3.555
				s-0.387-3.846,1.715-6.67C236.52,273.752,240.315,273.02,240.315,273.02z"/>
			<path style="fill:#FFFFFF;" d="M236.621,253.923c0,0,1.341,3.626,0.016,6.887c-1.326,3.261-4.816,4.923-4.816,4.923
				s-1.341-3.625-0.015-6.887C233.131,255.585,236.621,253.923,236.621,253.923z"/>
			<path style="fill:#FFFFFF;" d="M210.147,248.933c0,0,3.424,1.794,4.625,5.103c1.2,3.309-0.278,6.881-0.278,6.881
				s-3.424-1.794-4.625-5.103C208.668,252.505,210.147,248.933,210.147,248.933z"/>
			<path style="fill:#FFFFFF;" d="M222.492,271.769c0,0,2.439,2.999,2.238,6.513c-0.202,3.514-2.969,6.214-2.969,6.214
				s-2.44-2.999-2.237-6.513C219.725,274.469,222.492,271.769,222.492,271.769z"/>
			<path style="fill:#FFFFFF;" d="M221.839,237.774c0,0,2.439,2.999,2.237,6.513c-0.202,3.514-2.969,6.214-2.969,6.214
				s-2.439-2.999-2.237-6.514C219.071,240.474,221.839,237.774,221.839,237.774z"/>
			<path style="fill:#FFFFFF;" d="M194.131,310.284c0,0-0.387,3.846,1.715,6.67c2.102,2.824,5.898,3.555,5.898,3.555
				s0.387-3.846-1.715-6.67C197.927,311.016,194.131,310.284,194.131,310.284z"/>
			<path style="fill:#FFFFFF;" d="M186.939,331.204c0,0-0.387,3.846,1.715,6.67c2.103,2.824,5.898,3.555,5.898,3.555
				s0.387-3.846-1.715-6.67C190.735,331.935,186.939,331.204,186.939,331.204z"/>
			<path style="fill:#FFFFFF;" d="M206.029,338.799c0,0-0.387,3.846,1.715,6.67c2.102,2.823,5.898,3.555,5.898,3.555
				s0.387-3.846-1.715-6.67C209.824,339.531,206.029,338.799,206.029,338.799z"/>
			<path style="fill:#FFFFFF;" d="M211.248,309.812c0,0-1.472,3.574-0.267,6.882c1.206,3.307,4.633,5.095,4.633,5.095
				s1.472-3.574,0.267-6.882C214.675,311.6,211.248,309.812,211.248,309.812z"/>
			<path style="fill:#FFFFFF;" d="M197.73,386.945c0,0,3.865,0.07,6.507-2.256c2.642-2.327,3.06-6.17,3.06-6.17
				s-3.865-0.07-6.507,2.256C198.149,383.102,197.73,386.945,197.73,386.945z"/>
			<path style="fill:#FFFFFF;" d="M234.818,382.717c0,0,1.05,3.72,4.041,5.576c2.991,1.856,6.791,1.145,6.791,1.145
				s-1.05-3.72-4.041-5.576C238.618,382.007,234.818,382.717,234.818,382.717z"/>
			<path style="fill:#FFFFFF;" d="M202.042,290.999c0,0-0.387,3.846,1.715,6.67c2.102,2.823,5.898,3.555,5.898,3.555
				s0.387-3.846-1.715-6.67C205.838,291.73,202.042,290.999,202.042,290.999z"/>
			<path style="fill:#FFFFFF;" d="M201.976,274.001c0,0-0.387,3.846,1.715,6.67c2.102,2.824,5.898,3.555,5.898,3.555
				s0.387-3.846-1.715-6.67C205.772,274.733,201.976,274.001,201.976,274.001z"/>
		</g>
	</g>
	<g>
		<path style="fill:#92E3A9;" d="M332.794,395.112c0,22.376-13.237,40.515-29.565,40.515c-16.328,0-29.565-18.139-29.565-40.515
			c0-22.376,13.237-99.28,29.565-99.28C319.557,295.833,332.794,372.737,332.794,395.112z"/>
		<path style="opacity:0.5;fill:#FFFFFF;" d="M332.794,395.112c0,22.376-13.237,40.515-29.565,40.515
			c-16.328,0-29.565-18.139-29.565-40.515c0-22.376,13.237-99.28,29.565-99.28C319.557,295.833,332.794,372.737,332.794,395.112z"/>
		<polygon style="fill:#878787;" points="319.807,406.819 310.854,410.13 312.651,404.741 308.371,411.049 304.098,412.629 
			303.793,394.933 319.345,374.271 311.01,382.605 312.42,376.81 308.433,385.183 303.706,389.91 303.229,362.263 301.535,402.585 
			286.797,386.967 294.892,397.972 287.259,397.124 296.688,400.413 301.36,406.763 300.543,426.204 295.107,422.516 
			300.374,430.228 297.877,487.501 305.426,487.501 304.146,415.452 		"/>
		<g>
			<path style="fill:#FFFFFF;" d="M319.494,362.35c0,0,0.273,2.716-1.211,4.71c-1.485,1.994-4.165,2.511-4.165,2.511
				s-0.273-2.716,1.211-4.71C316.814,362.867,319.494,362.35,319.494,362.35z"/>
			<path style="fill:#FFFFFF;" d="M328.405,374.87c0,0,0.273,2.716-1.211,4.71c-1.485,1.994-4.165,2.511-4.165,2.511
				s-0.273-2.716,1.211-4.71C325.724,375.387,328.405,374.87,328.405,374.87z"/>
			<path style="fill:#FFFFFF;" d="M328.401,399.246c0,0-0.657,2.65-2.726,4.027c-2.069,1.378-4.767,0.962-4.767,0.962
				s0.657-2.65,2.726-4.027C325.703,398.83,328.401,399.246,328.401,399.246z"/>
			<path style="fill:#FFFFFF;" d="M279.463,399.246c0,0,0.657,2.65,2.726,4.027c2.069,1.378,4.767,0.962,4.767,0.962
				s-0.657-2.65-2.726-4.027C282.161,398.83,279.463,399.246,279.463,399.246z"/>
			<path style="fill:#FFFFFF;" d="M318.109,389.127c0,0,0.273,2.716-1.211,4.71c-1.485,1.994-4.165,2.511-4.165,2.511
				s-0.273-2.716,1.211-4.71C315.428,389.644,318.109,389.127,318.109,389.127z"/>
			<path style="fill:#FFFFFF;" d="M315.801,348.731c0,0,0.273,2.716-1.211,4.71c-1.485,1.994-4.165,2.511-4.165,2.511
				s-0.273-2.716,1.211-4.71C313.12,349.247,315.801,348.731,315.801,348.731z"/>
			<path style="fill:#FFFFFF;" d="M310.491,359.118c0,0,0.273,2.716-1.211,4.71c-1.485,1.994-4.165,2.511-4.165,2.511
				s-0.273-2.716,1.211-4.71C307.811,359.635,310.491,359.118,310.491,359.118z"/>
			<path style="fill:#FFFFFF;" d="M323.095,351.555c0,0,0.273,2.716-1.211,4.71c-1.485,1.994-4.165,2.511-4.165,2.511
				s-0.273-2.716,1.211-4.71C320.415,352.072,323.095,351.555,323.095,351.555z"/>
			<path style="fill:#FFFFFF;" d="M282.138,351.555c0,0-0.273,2.716,1.211,4.71c1.485,1.994,4.165,2.511,4.165,2.511
				s0.273-2.716-1.211-4.71C284.818,352.072,282.138,351.555,282.138,351.555z"/>
			<path style="fill:#FFFFFF;" d="M316.955,336.034c0,0,0.274,2.716-1.211,4.71c-1.485,1.994-4.165,2.511-4.165,2.511
				s-0.273-2.716,1.211-4.71C314.274,336.551,316.955,336.034,316.955,336.034z"/>
			<path style="fill:#FFFFFF;" d="M314.346,322.548c0,0,0.947,2.56,0.011,4.863c-0.936,2.303-3.401,3.477-3.401,3.477
				s-0.947-2.56-0.011-4.863C311.881,323.721,314.346,322.548,314.346,322.548z"/>
			<path style="fill:#FFFFFF;" d="M295.65,319.024c0,0,2.418,1.267,3.266,3.604c0.848,2.337-0.196,4.859-0.196,4.859
				s-2.418-1.267-3.266-3.604C294.606,321.546,295.65,319.024,295.65,319.024z"/>
			<path style="fill:#FFFFFF;" d="M304.368,335.151c0,0,1.723,2.118,1.58,4.6c-0.143,2.482-2.097,4.388-2.097,4.388
				s-1.723-2.118-1.58-4.6C302.414,337.057,304.368,335.151,304.368,335.151z"/>
			<path style="fill:#FFFFFF;" d="M303.907,311.144c0,0,1.723,2.118,1.58,4.6c-0.143,2.482-2.097,4.388-2.097,4.388
				s-1.723-2.118-1.58-4.6C301.952,313.05,303.907,311.144,303.907,311.144z"/>
			<path style="fill:#FFFFFF;" d="M284.34,362.35c0,0-0.273,2.716,1.211,4.71c1.485,1.994,4.165,2.511,4.165,2.511
				s0.273-2.716-1.211-4.71C287.02,362.867,284.34,362.35,284.34,362.35z"/>
			<path style="fill:#FFFFFF;" d="M279.261,377.124c0,0-0.273,2.716,1.211,4.71c1.485,1.994,4.165,2.511,4.165,2.511
				s0.273-2.716-1.211-4.71C281.941,377.64,279.261,377.124,279.261,377.124z"/>
			<path style="fill:#FFFFFF;" d="M292.742,382.487c0,0-0.274,2.716,1.211,4.71c1.485,1.994,4.165,2.511,4.165,2.511
				s0.273-2.716-1.211-4.71C295.422,383.004,292.742,382.487,292.742,382.487z"/>
			<path style="fill:#FFFFFF;" d="M296.427,362.017c0,0-1.04,2.524-0.188,4.86c0.851,2.336,3.272,3.598,3.272,3.598
				s1.04-2.524,0.188-4.86C298.848,363.279,296.427,362.017,296.427,362.017z"/>
			<path style="fill:#FFFFFF;" d="M286.881,416.488c0,0,2.73,0.05,4.595-1.593s2.161-4.357,2.161-4.357s-2.729-0.05-4.595,1.593
				C287.177,413.774,286.881,416.488,286.881,416.488z"/>
			<path style="fill:#FFFFFF;" d="M313.073,413.503c0,0,0.741,2.627,2.854,3.938c2.112,1.311,4.796,0.809,4.796,0.809
				s-0.742-2.627-2.854-3.938C315.756,413.001,313.073,413.503,313.073,413.503z"/>
			<path style="fill:#FFFFFF;" d="M289.926,348.731c0,0-0.273,2.716,1.211,4.71c1.485,1.994,4.165,2.511,4.165,2.511
				s0.273-2.716-1.211-4.71C292.607,349.247,289.926,348.731,289.926,348.731z"/>
			<path style="fill:#FFFFFF;" d="M289.879,336.727c0,0-0.273,2.716,1.211,4.71s4.165,2.511,4.165,2.511s0.273-2.716-1.211-4.71
				C292.56,337.244,289.879,336.727,289.879,336.727z"/>
		</g>
	</g>
	<g>
		<path style="fill:#92E3A9;" d="M98.664,395.112c0,22.376-13.237,40.515-29.565,40.515s-29.565-18.139-29.565-40.515
			c0-22.376,13.237-99.28,29.565-99.28S98.664,372.737,98.664,395.112z"/>
		<path style="opacity:0.5;fill:#FFFFFF;" d="M98.664,395.112c0,22.376-13.237,40.515-29.565,40.515s-29.565-18.139-29.565-40.515
			c0-22.376,13.237-99.28,29.565-99.28S98.664,372.737,98.664,395.112z"/>
		<polygon style="fill:#878787;" points="85.676,406.819 76.724,410.13 78.52,404.741 74.24,411.049 69.967,412.629 69.662,394.933 
			85.215,374.271 76.88,382.605 78.289,376.81 74.302,385.183 69.576,389.91 69.099,362.263 67.405,402.585 52.666,386.967 
			60.762,397.972 53.128,397.124 62.558,400.413 67.229,406.763 66.412,426.204 60.977,422.516 66.243,430.228 63.746,487.501 
			71.295,487.501 70.016,415.452 		"/>
		<g>
			<path style="fill:#FFFFFF;" d="M85.364,362.35c0,0,0.273,2.716-1.211,4.71c-1.485,1.994-4.165,2.511-4.165,2.511
				s-0.273-2.716,1.211-4.71C82.683,362.867,85.364,362.35,85.364,362.35z"/>
			<path style="fill:#FFFFFF;" d="M94.274,374.87c0,0,0.273,2.716-1.211,4.71c-1.485,1.994-4.165,2.511-4.165,2.511
				s-0.274-2.716,1.211-4.71C91.594,375.387,94.274,374.87,94.274,374.87z"/>
			<path style="fill:#FFFFFF;" d="M94.271,399.246c0,0-0.657,2.65-2.726,4.027c-2.069,1.378-4.768,0.962-4.768,0.962
				s0.657-2.65,2.726-4.027C91.572,398.83,94.271,399.246,94.271,399.246z"/>
			<path style="fill:#FFFFFF;" d="M45.333,399.246c0,0,0.657,2.65,2.726,4.027c2.069,1.378,4.767,0.962,4.767,0.962
				s-0.657-2.65-2.726-4.027C48.031,398.83,45.333,399.246,45.333,399.246z"/>
			<path style="fill:#FFFFFF;" d="M83.979,389.127c0,0,0.273,2.716-1.211,4.71c-1.485,1.994-4.165,2.511-4.165,2.511
				s-0.273-2.716,1.211-4.71C81.298,389.644,83.979,389.127,83.979,389.127z"/>
			<path style="fill:#FFFFFF;" d="M81.67,348.731c0,0,0.273,2.716-1.211,4.71c-1.485,1.994-4.165,2.511-4.165,2.511
				s-0.273-2.716,1.211-4.71C78.99,349.247,81.67,348.731,81.67,348.731z"/>
			<path style="fill:#FFFFFF;" d="M76.361,359.118c0,0,0.273,2.716-1.211,4.71c-1.485,1.994-4.165,2.511-4.165,2.511
				s-0.274-2.716,1.211-4.71C73.68,359.635,76.361,359.118,76.361,359.118z"/>
			<path style="fill:#FFFFFF;" d="M88.965,351.555c0,0,0.273,2.716-1.211,4.71c-1.485,1.994-4.165,2.511-4.165,2.511
				s-0.273-2.716,1.211-4.71C86.284,352.072,88.965,351.555,88.965,351.555z"/>
			<path style="fill:#FFFFFF;" d="M48.007,351.555c0,0-0.273,2.716,1.211,4.71c1.485,1.994,4.165,2.511,4.165,2.511
				s0.273-2.716-1.211-4.71C50.688,352.072,48.007,351.555,48.007,351.555z"/>
			<path style="fill:#FFFFFF;" d="M82.824,336.034c0,0,0.274,2.716-1.211,4.71c-1.485,1.994-4.165,2.511-4.165,2.511
				s-0.273-2.716,1.211-4.71C80.144,336.551,82.824,336.034,82.824,336.034z"/>
			<path style="fill:#FFFFFF;" d="M80.215,322.548c0,0,0.947,2.56,0.011,4.863c-0.936,2.303-3.401,3.477-3.401,3.477
				s-0.947-2.56-0.011-4.863C77.751,323.721,80.215,322.548,80.215,322.548z"/>
			<path style="fill:#FFFFFF;" d="M61.519,319.024c0,0,2.418,1.267,3.266,3.604c0.847,2.337-0.196,4.859-0.196,4.859
				s-2.418-1.267-3.266-3.604C60.475,321.546,61.519,319.024,61.519,319.024z"/>
			<path style="fill:#FFFFFF;" d="M70.238,335.151c0,0,1.723,2.118,1.58,4.6c-0.143,2.482-2.097,4.388-2.097,4.388
				s-1.723-2.118-1.58-4.6C68.284,337.057,70.238,335.151,70.238,335.151z"/>
			<path style="fill:#FFFFFF;" d="M69.776,311.144c0,0,1.723,2.118,1.58,4.6c-0.143,2.482-2.097,4.388-2.097,4.388
				s-1.723-2.118-1.58-4.6C67.822,313.05,69.776,311.144,69.776,311.144z"/>
			<path style="fill:#FFFFFF;" d="M50.209,362.35c0,0-0.273,2.716,1.211,4.71c1.485,1.994,4.166,2.511,4.166,2.511
				s0.273-2.716-1.211-4.71C52.889,362.867,50.209,362.35,50.209,362.35z"/>
			<path style="fill:#FFFFFF;" d="M45.13,377.124c0,0-0.273,2.716,1.211,4.71c1.485,1.994,4.165,2.511,4.165,2.511
				s0.273-2.716-1.211-4.71C47.811,377.64,45.13,377.124,45.13,377.124z"/>
			<path style="fill:#FFFFFF;" d="M58.611,382.487c0,0-0.273,2.716,1.211,4.71c1.485,1.994,4.165,2.511,4.165,2.511
				s0.273-2.716-1.211-4.71C61.292,383.004,58.611,382.487,58.611,382.487z"/>
			<path style="fill:#FFFFFF;" d="M62.297,362.017c0,0-1.04,2.524-0.188,4.86c0.851,2.336,3.272,3.598,3.272,3.598
				s1.04-2.524,0.188-4.86C64.717,363.279,62.297,362.017,62.297,362.017z"/>
			<path style="fill:#FFFFFF;" d="M52.751,416.488c0,0,2.73,0.05,4.595-1.593s2.161-4.357,2.161-4.357s-2.73-0.05-4.595,1.593
				C53.046,413.774,52.751,416.488,52.751,416.488z"/>
			<path style="fill:#FFFFFF;" d="M78.942,413.503c0,0,0.741,2.627,2.854,3.938c2.112,1.311,4.796,0.809,4.796,0.809
				s-0.742-2.627-2.854-3.938C81.626,413.001,78.942,413.503,78.942,413.503z"/>
			<path style="fill:#FFFFFF;" d="M55.796,348.731c0,0-0.273,2.716,1.211,4.71c1.485,1.994,4.165,2.511,4.165,2.511
				s0.273-2.716-1.211-4.71C58.476,349.247,55.796,348.731,55.796,348.731z"/>
			<path style="fill:#FFFFFF;" d="M55.749,336.727c0,0-0.273,2.716,1.211,4.71c1.485,1.994,4.165,2.511,4.165,2.511
				s0.273-2.716-1.211-4.71C58.43,337.244,55.749,336.727,55.749,336.727z"/>
		</g>
	</g>
	<g>
		<path style="fill:#92E3A9;" d="M495.906,311.678c0,42.583-25.191,77.103-56.265,77.103s-56.264-34.52-56.264-77.103
			c0-42.583,25.19-188.938,56.264-188.938S495.906,269.095,495.906,311.678z"/>
		<path style="opacity:0.5;fill:#FFFFFF;" d="M495.906,311.678c0,42.583-25.191,77.103-56.265,77.103s-56.264-34.52-56.264-77.103
			c0-42.583,25.19-188.938,56.264-188.938S495.906,269.095,495.906,311.678z"/>
		<polygon style="fill:#878787;" points="471.19,333.957 454.153,340.258 457.572,330.003 449.427,342.006 441.295,345.014 
			440.714,311.337 470.311,272.015 454.449,287.876 457.132,276.847 449.544,292.782 440.549,301.777 439.642,249.162 
			436.418,325.899 408.369,296.176 423.776,317.12 409.248,315.506 427.194,321.766 436.083,333.85 434.529,370.849 
			424.184,363.829 434.207,378.506 429.456,487.501 443.821,487.501 441.387,350.386 		"/>
		<g>
			<path style="fill:#FFFFFF;" d="M470.595,249.328c0,0,0.52,5.169-2.305,8.964c-2.826,3.795-7.927,4.778-7.927,4.778
				s-0.52-5.169,2.305-8.964C465.494,250.312,470.595,249.328,470.595,249.328z"/>
			<path style="fill:#FFFFFF;" d="M487.553,273.155c0,0,0.52,5.169-2.305,8.964c-2.826,3.795-7.927,4.778-7.927,4.778
				s-0.521-5.169,2.305-8.964C482.451,274.138,487.553,273.155,487.553,273.155z"/>
			<path style="fill:#FFFFFF;" d="M487.546,319.544c0,0-1.25,5.043-5.188,7.665c-3.938,2.622-9.073,1.831-9.073,1.831
				s1.25-5.043,5.188-7.665C482.411,318.753,487.546,319.544,487.546,319.544z"/>
			<path style="fill:#FFFFFF;" d="M394.413,319.544c0,0,1.25,5.043,5.188,7.665c3.938,2.622,9.072,1.831,9.072,1.831
				s-1.25-5.043-5.188-7.665C399.548,318.753,394.413,319.544,394.413,319.544z"/>
			<path style="fill:#FFFFFF;" d="M467.959,300.288c0,0,0.52,5.169-2.305,8.964c-2.825,3.795-7.927,4.778-7.927,4.778
				s-0.52-5.169,2.305-8.964C462.858,301.271,467.959,300.288,467.959,300.288z"/>
			<path style="fill:#FFFFFF;" d="M463.566,223.41c0,0,0.52,5.169-2.305,8.964c-2.825,3.795-7.927,4.778-7.927,4.778
				s-0.52-5.169,2.305-8.964C458.465,224.393,463.566,223.41,463.566,223.41z"/>
			<path style="fill:#FFFFFF;" d="M453.462,243.178c0,0,0.52,5.169-2.305,8.964c-2.826,3.795-7.927,4.778-7.927,4.778
				s-0.521-5.169,2.305-8.964C448.361,244.161,453.462,243.178,453.462,243.178z"/>
			<path style="fill:#FFFFFF;" d="M477.449,228.785c0,0,0.52,5.169-2.305,8.964c-2.826,3.795-7.927,4.778-7.927,4.778
				s-0.52-5.169,2.305-8.964C472.347,229.768,477.449,228.785,477.449,228.785z"/>
			<path style="fill:#FFFFFF;" d="M399.503,228.785c0,0-0.52,5.169,2.305,8.964c2.825,3.795,7.927,4.778,7.927,4.778
				s0.52-5.169-2.305-8.964C404.605,229.768,399.503,228.785,399.503,228.785z"/>
			<path style="fill:#FFFFFF;" d="M465.762,199.248c0,0,0.521,5.169-2.305,8.964c-2.825,3.795-7.927,4.778-7.927,4.778
				s-0.52-5.169,2.305-8.964C460.661,200.231,465.762,199.248,465.762,199.248z"/>
			<path style="fill:#FFFFFF;" d="M460.797,173.582c0,0,1.803,4.873,0.021,9.256c-1.781,4.383-6.472,6.616-6.472,6.616
				s-1.802-4.873-0.021-9.255C456.107,175.815,460.797,173.582,460.797,173.582z"/>
			<path style="fill:#FFFFFF;" d="M425.217,166.875c0,0,4.602,2.411,6.215,6.858c1.613,4.448-0.374,9.248-0.374,9.248
				s-4.602-2.411-6.216-6.858C423.23,171.675,425.217,166.875,425.217,166.875z"/>
			<path style="fill:#FFFFFF;" d="M441.809,197.566c0,0,3.279,4.03,3.007,8.754c-0.272,4.723-3.991,8.351-3.991,8.351
				s-3.279-4.03-3.007-8.754C438.09,201.194,441.809,197.566,441.809,197.566z"/>
			<path style="fill:#FFFFFF;" d="M440.931,151.879c0,0,3.278,4.03,3.006,8.754c-0.272,4.723-3.99,8.351-3.99,8.351
				s-3.279-4.03-3.007-8.754C437.212,155.507,440.931,151.879,440.931,151.879z"/>
			<path style="fill:#FFFFFF;" d="M403.693,249.328c0,0-0.52,5.169,2.305,8.964c2.826,3.795,7.927,4.778,7.927,4.778
				s0.52-5.169-2.305-8.964C408.794,250.312,403.693,249.328,403.693,249.328z"/>
			<path style="fill:#FFFFFF;" d="M394.028,277.444c0,0-0.52,5.169,2.305,8.964c2.826,3.795,7.927,4.778,7.927,4.778
				s0.52-5.169-2.305-8.964C399.129,278.427,394.028,277.444,394.028,277.444z"/>
			<path style="fill:#FFFFFF;" d="M419.683,287.652c0,0-0.52,5.169,2.305,8.964c2.825,3.795,7.927,4.778,7.927,4.778
				s0.52-5.169-2.305-8.964C424.784,288.635,419.683,287.652,419.683,287.652z"/>
			<path style="fill:#FFFFFF;" d="M426.697,248.694c0,0-1.979,4.803-0.358,9.249c1.62,4.445,6.227,6.848,6.227,6.848
				s1.979-4.804,0.358-9.249C431.303,251.097,426.697,248.694,426.697,248.694z"/>
			<path style="fill:#FFFFFF;" d="M408.53,352.358c0,0,5.194,0.095,8.745-3.032c3.55-3.127,4.112-8.292,4.112-8.292
				s-5.195-0.095-8.745,3.032C409.092,347.193,408.53,352.358,408.53,352.358z"/>
			<path style="fill:#FFFFFF;" d="M458.375,346.676c0,0,1.411,5,5.431,7.495c4.02,2.495,9.127,1.539,9.127,1.539
				s-1.411-5-5.431-7.495C463.482,345.721,458.375,346.676,458.375,346.676z"/>
			<path style="fill:#FFFFFF;" d="M414.325,223.41c0,0-0.52,5.169,2.305,8.964c2.826,3.795,7.927,4.778,7.927,4.778
				s0.52-5.169-2.305-8.964C419.426,224.393,414.325,223.41,414.325,223.41z"/>
			<path style="fill:#FFFFFF;" d="M414.236,200.566c0,0-0.52,5.169,2.305,8.964c2.825,3.795,7.927,4.778,7.927,4.778
				s0.52-5.169-2.305-8.964C419.337,201.549,414.236,200.566,414.236,200.566z"/>
		</g>
	</g>
</g>
<g id="Character_2">
	<g>
		<path style="fill:#263238;stroke:#263238;stroke-linecap:round;stroke-linejoin:round;stroke-miterlimit:10;" d="M437.655,487.501
			v-10.125l4.085-42.724l-69.939-1.912c0,0-2.919,5.362-4.874,9.45c-1.955,4.087-16.349,36.43-16.349,36.43l-2.22,8.881H437.655z"/>
		<g>
			<path style="fill:#FFFFFF;stroke:#263238;stroke-linecap:round;stroke-linejoin:round;stroke-miterlimit:10;" d="
				M405.839,294.997c0,0-8.025-3.924-14.446-2.853c-6.42,1.07-15.159,2.675-19.974,2.675c-4.815,0-16.051-2.14-16.051-2.14
				s-1.605-3.032,4.459-8.561c6.064-5.529,12.484-11.949,12.841-14.089c0.357-2.14,0.713-3.567,0.713-3.567l-18.904,1.605
				c0,0,0.357,1.962-1.427,6.064c-1.783,4.102-16.375,13.289-21.904,22.028c-5.529,8.739-5.079,7.498-1.512,11.956
				c3.567,4.459,12.522,8.215,28.723,10.445c21.099,2.904,35.355-1.27,35.355-1.27l13.376-19.261L405.839,294.997z"/>
			<path style="fill:none;stroke:#263238;stroke-linecap:round;stroke-linejoin:round;stroke-miterlimit:10;" d="M381.228,303.201
				c0,0,5.529,9.809,6.242,15.159"/>
			<path style="fill:none;stroke:#263238;stroke-linecap:round;stroke-linejoin:round;stroke-miterlimit:10;" d="M345.44,306.5
				c-1.001,0.053-2.088,0.029-3.27-0.089"/>
			<path style="fill:none;stroke:#263238;stroke-linecap:round;stroke-linejoin:round;stroke-miterlimit:10;" d="M355.724,294.105
				c0,0,1.783,3.389,0.357,6.064c-1.083,2.031-3.399,5.089-8.353,6.055"/>
		</g>
		<path style="fill:#FFFFFF;stroke:#263238;stroke-linecap:round;stroke-linejoin:round;stroke-miterlimit:10;" d="M400.148,234.15
			c0,0-3.929,4.747-3.765,7.366s0.982,3.438-0.327,5.074c-1.31,1.637-4.747,2.947-4.42,4.911c0.327,1.964,3.438,3.438,3.438,3.438
			s-1.473,2.128-1.146,3.274c0.327,1.146,0.327,1.146,0.327,1.146s-1.637,1.964-1.31,2.946c0.327,0.982,0.818,2.455,0.818,2.455
			s-1.31,4.747-0.164,7.039c1.146,2.292,4.747,3.765,9.003,3.601c4.256-0.164,7.366,9.331,7.857,12.277s0.164,4.42-0.491,5.402
			c-0.655,0.982-8.021,0.982-14.078,6.057s-8.676,11.295-10.149,25.7c-1.473,14.405-4.583,58.766-4.583,58.766l-4.441,30.286
			l-4.918,18.851c0,0,33.057,9.016,47.537,7.65c14.48-1.366,22.402-5.737,22.402-5.737s-5.191-40.707-5.191-43.439
			s17.212-68.3,17.212-68.3s4.098-15.299,3.005-20.217s-11.474-12.84-14.48-15.846c-3.005-3.005-8.196-8.742-8.196-13.933
			s10.093-18.437,11.357-25.041c1.265-6.604,0-12.645,0-12.645s1.265,4.075,1.827,1.827c0.562-2.248-2.529-6.042-2.529-6.042
			s2.108,0.14,1.124-2.951c-0.984-3.091-3.091-4.918-3.091-3.513c0,1.405,0,2.389-0.141,2.81c-0.141,0.422-2.248-0.843-12.224-6.885
			c-9.976-6.042-20.935-4.496-21.638-3.653c-0.702,0.843,0.984-3.372-2.67-1.124c-3.653,2.248-8.992,6.885-8.43,12.083
			C398.239,232.983,400.148,234.15,400.148,234.15z"/>
		<path style="fill:#263238;stroke:#263238;stroke-linecap:round;stroke-linejoin:round;stroke-miterlimit:10;" d="M420.86,250.125
			c0.843,0.702,1.265,2.248,2.108,0.421c0.843-1.827,2.81-5.058,7.587-3.794c4.777,1.264,3.934,6.323,3.091,9.414
			c-0.771,2.828-0.013,11.652,1.198,13.562c2.36-6.222,9.55-16.345,10.605-21.852c1.265-6.604,0-12.645,0-12.645
			s1.265,4.075,1.827,1.827c0.562-2.248-2.529-6.042-2.529-6.042s2.108,0.14,1.124-2.951c-0.984-3.091-3.091-4.918-3.091-3.513
			c0,1.405,0,2.389-0.141,2.81c-0.141,0.422-2.248-0.843-12.224-6.885c-9.976-6.042-20.935-4.496-21.638-3.653
			c-0.703,0.843,0.984-3.372-2.67-1.124c-3.653,2.248-8.992,6.885-8.43,12.083c0.548,5.071,2.374,6.303,2.463,6.36
			c-0.054-0.043-0.202-0.439,4.984-3.55c5.62-3.372,14.05-0.281,10.678,3.232c-3.372,3.513-0.984,4.777,2.529,7.306
			C421.843,243.662,420.017,249.422,420.86,250.125z"/>
		<path style="fill:#FFFFFF;stroke:#263238;stroke-linecap:round;stroke-linejoin:round;stroke-miterlimit:10;" d="M425.497,249.703
			c0,0,3.934-4.075,6.744-1.967c2.81,2.108,1.124,8.29-0.562,9.835c-1.686,1.546-7.166,4.356-8.29,1.967"/>
		<path style="fill:none;stroke:#263238;stroke-width:2;stroke-linecap:round;stroke-linejoin:round;stroke-miterlimit:10;" d="
			M401.001,241.238c0,0,3.701-2.213,8.056,0.738"/>
		<path style="fill:none;stroke:#263238;stroke-linecap:round;stroke-linejoin:round;stroke-miterlimit:10;" d="M401.082,245.91
			c0,0,2.006,2.003,6.43,0"/>
		<path style="fill:#263238;stroke:#263238;stroke-linecap:round;stroke-linejoin:round;stroke-miterlimit:10;" d="M402.604,275.401
			c0,0,7.578,0.576,11.652-3.217c0,0-3.232,7.166-5.901,8.852C408.355,281.036,405.564,275.247,402.604,275.401z"/>
		<g>
			<path style="fill:#92E3A9;stroke:#263238;stroke-linecap:round;stroke-linejoin:round;stroke-miterlimit:10;" d="M444.557,288.93
				c-0.988,0.216-2.762,0.687-5.15,1.66c-3.794,1.546-18.828,14.05-25.572,18.828c-6.744,4.777-13.067,6.744-15.315,2.388
				c-2.248-4.356,1.967-10.538,3.513-13.207c1.546-2.67,5.199-2.951,6.744-4.215c0.55-0.45,0.88-0.862,1.085-1.209
				c-1.063,0.891-8.118,1.06-13.97,5.962c-6.057,5.074-8.676,11.295-10.149,25.7c-1.473,14.405-4.583,58.766-4.583,58.766
				l-4.441,30.286l-4.918,18.851c0,0,33.057,9.016,47.537,7.65c14.48-1.366,22.402-5.737,22.402-5.737s-5.191-40.707-5.191-43.439
				c0-2.732,17.212-68.3,17.212-68.3s4.098-15.299,3.005-20.217C455.872,298.672,448.759,292.637,444.557,288.93z"/>
			<path style="fill:none;stroke:#263238;stroke-linecap:round;stroke-linejoin:round;stroke-miterlimit:10;" d="M425.978,376.017
				c1.374,1.221,2.671,2.216,3.84,2.895"/>
			<path style="fill:none;stroke:#263238;stroke-linecap:round;stroke-linejoin:round;stroke-miterlimit:10;" d="M402.958,347.827
				c0,0,11.675,17.11,21.052,26.342"/>
			<path style="fill:none;stroke:#263238;stroke-linecap:round;stroke-linejoin:round;stroke-miterlimit:10;" d="M412.823,433.298
				c2.785,0.728,5.74,1.422,8.847,2.052"/>
			<path style="fill:none;stroke:#263238;stroke-linecap:round;stroke-linejoin:round;stroke-miterlimit:10;" d="M384.85,422.976
				c0,0,8.698,4.711,23.005,8.939"/>
			<path style="fill:none;stroke:#263238;stroke-linecap:round;stroke-linejoin:round;stroke-miterlimit:10;" d="M387.264,428.408
				c0,0,18.712,7.243,28.671,7.545"/>
		</g>
		<path style="fill:none;stroke:#263238;stroke-linecap:round;stroke-linejoin:round;stroke-miterlimit:10;" d="M365.372,268.922
			c0,0-5.847,2.159-5.577,4.408c0.27,2.249,2.069,3.418,3.598,3.418"/>
		<g>
			<path style="fill:#FFFFFF;stroke:#263238;stroke-linecap:round;stroke-linejoin:round;stroke-miterlimit:10;" d="M386.828,256.63
				c0.393,4.171-0.078,7.626-1.053,7.718c-0.974,0.092-2.083-3.215-2.476-7.385s0.078-7.626,1.052-7.718
				C385.326,249.153,386.434,252.459,386.828,256.63z"/>
			<path style="fill:#92E3A9;stroke:#263238;stroke-linecap:round;stroke-linejoin:round;stroke-miterlimit:10;" d="
				M391.364,256.204c-0.393-4.171-1.502-7.477-2.476-7.385l-4.537,0.425l1.424,15.103l4.537-0.425
				C391.286,263.83,391.757,260.375,391.364,256.204z"/>
			<path style="fill:#FFFFFF;stroke:#263238;stroke-linecap:round;stroke-linejoin:round;stroke-miterlimit:10;" d="
				M339.611,251.499c0,0,0.852-0.584,2.301-0.816c1.449-0.232,39.362-2.551,40.869-2.203c1.507,0.348,1.57,0.765,1.57,0.765
				l1.424,15.103c0,0-0.848,1.118-3.051,1.523c-2.203,0.406-39.42,2.551-40.173,2.667c-0.754,0.116-0.966-0.296-1.352-0.206
				C340.811,268.422,339.611,251.499,339.611,251.499z"/>
			<path style="fill:#FFFFFF;stroke:#263238;stroke-linecap:round;stroke-linejoin:round;stroke-miterlimit:10;" d="
				M363.842,249.132c0,0-0.72-1.349-1.799-1.709c-1.079-0.36-3.958-0.18-3.688,0.81s0.27,0.99,0.27,0.99L363.842,249.132z"/>
			<path style="fill:#FFFFFF;stroke:#263238;stroke-linecap:round;stroke-linejoin:round;stroke-miterlimit:10;" d="
				M371.219,248.592c0,0-1.979-1.889-3.688-1.529c-1.32,0.278-0.9,1.979-0.9,1.979L371.219,248.592z"/>
			<path style="fill:#FFFFFF;stroke:#263238;stroke-linecap:round;stroke-linejoin:round;stroke-miterlimit:10;" d="
				M377.156,248.412c0,0-1.979-1.889-3.688-1.529c-1.32,0.278-0.9,1.979-0.9,1.979L377.156,248.412z"/>
			<path style="fill:none;stroke:#263238;stroke-linecap:round;stroke-linejoin:round;stroke-miterlimit:10;" d="M376.706,249.941
				c0,0,0.36,5.128-0.54,7.916c-0.9,2.789-1.979,5.577-1.979,5.577"/>
			<path style="fill:none;stroke:#263238;stroke-linecap:round;stroke-linejoin:round;stroke-miterlimit:10;" d="M367.351,250.301
				c0,0,1.709,2.879,1.169,4.048c-0.54,1.169-0.81,1.889-0.81,1.889"/>
			<path style="fill:none;stroke:#263238;stroke-linecap:round;stroke-linejoin:round;stroke-miterlimit:10;" d="M364.022,250.391
				c0,0,1.349,2.519,1.529,4.228"/>
			<path style="fill:none;stroke:#263238;stroke-linecap:round;stroke-linejoin:round;stroke-miterlimit:10;" d="M359.974,250.751
				c0,0,1.259,2.789,1.349,4.138c0.09,1.349-0.36,2.429-0.72,2.339c-0.36-0.09-4.228-4.318-5.667-5.038"/>
			<path style="fill:none;stroke:#263238;stroke-linecap:round;stroke-linejoin:round;stroke-miterlimit:10;" d="M352.058,254.259
				c0,0,3.418,3.508,3.778,4.858c0.36,1.349-0.99,6.657-0.99,6.657"/>
			<path style="fill:#92E3A9;stroke:#263238;stroke-linecap:round;stroke-linejoin:round;stroke-miterlimit:10;" d="M391.1,253.809
				h2.609c0,0,0.81,0.99,0.9,3.058c0.09,2.069-0.63,3.508-0.63,3.508l-2.609,0.36C391.369,260.736,391.909,255.788,391.1,253.809z"
				/>
		</g>
		<path style="fill:none;stroke:#8A8A8A;stroke-linecap:round;stroke-linejoin:round;stroke-miterlimit:10;" d="M390.384,442.545
			c-0.314,12.677-1.991,25.253-1.443,37.818"/>
		<path style="fill:none;stroke:#8A8A8A;stroke-linecap:round;stroke-linejoin:round;stroke-miterlimit:10;" d="M376.168,458.005
			c0,0,5.509,18.66,8.352,23.991"/>
		<path style="fill:#92E3A9;stroke:#263238;stroke-linecap:round;stroke-linejoin:round;stroke-miterlimit:10;" d="M342.433,257.138
			l-2.388,0.126c0.384,4.895,0.919,11.123,1.154,11.068c0.387-0.09,0.599,0.322,1.352,0.206c0.754-0.116,37.97-2.261,40.173-2.667
			c2.203-0.406,3.051-1.523,3.051-1.523l-0.671-7.121L342.433,257.138z"/>
		<path style="fill:#FFFFFF;stroke:#263238;stroke-linecap:round;stroke-linejoin:round;stroke-miterlimit:10;" d="M366.471,277.608
			c0,0,6.155-4.616,7.566-6.412c1.411-1.795,1.231-2.094,0.961-2.814c-0.27-0.72-0.99-1.529-1.529-2.969
			c-0.54-1.439-2.699-2.159-3.508,0.27c-0.81,2.429,0.18,4.048,0.54,4.588c0.36,0.54,0.36,1.079,0.36,1.079"/>
		<path style="fill:#FFFFFF;stroke:#263238;stroke-linecap:round;stroke-linejoin:round;stroke-miterlimit:10;" d="M342.371,259.73
			c0.438,4.648-0.087,8.499-1.173,8.602c-1.086,0.102-2.322-3.583-2.76-8.231c-0.438-4.648,0.087-8.499,1.173-8.602
			C340.697,251.396,341.933,255.082,342.371,259.73z"/>
		<g>
			<path style="fill:#FFFFFF;stroke:#263238;stroke-linecap:round;stroke-linejoin:round;stroke-miterlimit:10;" d="M448.285,292.5
				c0,0-7.312,0.357-14.981,11.414s-7.49,25.325-3.567,31.745c3.924,6.42,8.917,11.057,8.917,11.057l6.42,31.388
				c0,0-5.529,19.439-6.777,27.287c-1.248,7.847-15.694,38.522-15.872,39.057c-0.178,0.535-10.166,12.662-10.344,14.089
				c-0.178,1.427-3.923,11.057-4.815,13.019c-0.892,1.962,0,2.497,1.962,1.962c1.962-0.535,4.459-3.388,4.459-3.388
				s-1.07,6.955-1.427,8.917c-0.357,1.962-3.032,1.962-1.962,3.745c1.07,1.783,6.242-0.535,7.134-0.892
				c0.892-0.357,9.631-1.07,12.127-3.21c2.497-2.14,4.994-6.599,5.35-9.987c0.357-3.388,0.713-14.624,1.783-19.796
				c1.07-5.172,24.433-39.414,27.465-47.974c3.032-8.56,4.637-21.045,4.28-23.185s0-37.274-0.713-49.044
				c-0.713-11.771-5.885-24.433-8.917-28.892C455.775,295.354,448.285,292.5,448.285,292.5z"/>
			<path style="fill:none;stroke:#263238;stroke-linecap:round;stroke-linejoin:round;stroke-miterlimit:10;" d="M438.654,346.716
				l-2.386-12.968c0,0-3.162-1.977-5.534-5.534"/>
			<path style="fill:none;stroke:#263238;stroke-linecap:round;stroke-linejoin:round;stroke-miterlimit:10;" d="M417.431,481.901
				c0,0,2.432-3.28,2.828-5.059c0.395-1.779,1.779-8.894,1.779-8.894"/>
			<path style="fill:none;stroke:#263238;stroke-linecap:round;stroke-linejoin:round;stroke-miterlimit:10;" d="M423.421,480.597
				c0,0,1.581-2.174,1.581-3.953s1.779-9.092,1.779-9.092"/>
			<path style="fill:none;stroke:#263238;stroke-linecap:round;stroke-linejoin:round;stroke-miterlimit:10;" d="M426.781,479.806
				c0,0,1.976-0.791,2.767-5.336c0.791-4.546,1.976-7.51,1.976-7.51"/>
			
				<line style="fill:none;stroke:#263238;stroke-linecap:round;stroke-linejoin:round;stroke-miterlimit:10;" x1="413.686" y1="470.13" x2="415.12" y2="459.647"/>
		</g>
	</g>
</g>
<g id="Character_1">
	<g>
		<path style="fill:#263238;stroke:#263238;stroke-linecap:round;stroke-linejoin:round;stroke-miterlimit:10;" d="M132.13,130.862
			c0,0,3.471,1.587,8.186-2.135c4.715-3.723,17.678-9.949,20.904,0.723c3.226,10.672-1.241,18.117-4.715,20.102
			c-3.475,1.985-14.146-1.489-17.124-5.708C136.402,139.624,127.663,133.84,132.13,130.862z"/>
		<g>
			<path style="fill:#92E3A9;stroke:#263238;stroke-linecap:round;stroke-linejoin:round;stroke-miterlimit:10;" d="
				M121.446,487.501h125.273l-6.178-46.164c0-2.142-1.839-43.419-0.5-55.2c1.339-11.781,7.765-16.601,6.158-30.257
				c-1.607-13.656-30.525-63.192-30.525-63.192s-10.443-19.011-20.082-26.776c-9.639-7.765-18.208-9.907-24.902-9.907
				c-6.694,0-48.732,23.295-52.481,32.131c-3.749,8.836,10.978,142.717,10.978,142.717L121.446,487.501z"/>
			<path style="fill:none;stroke:#263238;stroke-linecap:round;stroke-linejoin:round;stroke-miterlimit:10;" d="M198.757,463.569
				c1.855,0.723,3.711,1.426,5.56,2.103"/>
			<path style="fill:none;stroke:#263238;stroke-linecap:round;stroke-linejoin:round;stroke-miterlimit:10;" d="M146.219,438.857
				c0,0,23.748,13.102,48.866,23.254"/>
			<path style="fill:none;stroke:#263238;stroke-linecap:round;stroke-linejoin:round;stroke-miterlimit:10;" d="M138.999,446.076
				c0,0,20.971,6.188,24.752,6.876"/>
			<path style="fill:none;stroke:#263238;stroke-linecap:round;stroke-linejoin:round;stroke-miterlimit:10;" d="M187.33,402.519
				c-2.022,0.49-4.15,0.918-6.39,1.272"/>
			<path style="fill:none;stroke:#263238;stroke-linecap:round;stroke-linejoin:round;stroke-miterlimit:10;" d="M223.569,375.258
				c0,0-6.072,17.687-30.938,25.764"/>
		</g>
		<path style="fill:#FFFFFF;stroke:#263238;stroke-linecap:round;stroke-linejoin:round;stroke-miterlimit:10;" d="M96.709,487.501
			h42.032l-3.394-62.271c0,0,9.104-65.869,8.836-78.186c-0.268-12.317-0.803-43.11-11.246-54.891
			c-10.443-11.781-19.011-9.104-19.011-9.104s-10.175,4.016-13.924,20.082c-3.749,16.066-6.426,111.121-6.426,111.121
			s0.268,7.497,0.535,17.405C94.351,440.482,96.289,479.159,96.709,487.501z"/>
		<path style="fill:#FFFFFF;stroke:#263238;stroke-linecap:round;stroke-linejoin:round;stroke-miterlimit:10;" d="M265.733,188.563
			c0,0,2.319,12.094,3.148,17.23c0.828,5.136-0.663,6.627,8.781,15.076c9.443,8.449,46.222,44.731,58.648,63.121
			c12.425,18.389,19.384,28.33,17.395,34.625c-1.988,6.296-14.248,12.26-21.537,13.585c-7.29,1.325-31.809,3.148-52.683,2.154
			c-20.875-0.994-32.306-2.651-32.306-2.651l-32.637-69.748c0,0,26.507,14.91,46.057,19.88c19.549,4.97,31.809,7.787,31.809,7.787
			s-13.254-28.827-26.176-42.578s-19.881-20.212-24.188-26.342c-4.308-6.13-10.272-30.152-10.272-30.152L265.733,188.563z"/>
		<path style="fill:none;stroke:#263238;stroke-linecap:round;stroke-linejoin:round;stroke-miterlimit:10;" d="M223.729,266.092
			c0,0,30.123,18.905,43.29,31.64c13.167,12.735,18.228,20.812,15.853,24.913c-2.374,4.101-15.853,11.885-15.853,11.885
			s-3.358-8.863-18.036-27.643C234.305,288.109,223.729,266.092,223.729,266.092z"/>
		<g>
			<path style="fill:#FFFFFF;stroke:#263238;stroke-linecap:round;stroke-linejoin:round;stroke-miterlimit:10;" d="
				M183.148,245.154c0,0,14.678,1.079,26.118,6.691c11.44,5.612,40.58,38.853,54.179,64.971
				c13.599,26.118,13.599,31.299,13.599,31.299s-5.612,3.454-17.916,7.771c-12.304,4.317-15.541,5.396-17.268,3.669
				s-13.383-30.003-25.686-56.337c-12.303-26.334-32.594-38.206-32.594-38.206L183.148,245.154z"/>
			<path style="fill:none;stroke:#263238;stroke-linecap:round;stroke-linejoin:round;stroke-miterlimit:10;" d="M207.653,272.882
				c1.552,1.767,3.102,3.758,4.617,6.002"/>
			<path style="fill:none;stroke:#263238;stroke-linecap:round;stroke-linejoin:round;stroke-miterlimit:10;" d="M185.792,259.138
				c0,0,9.35,1.169,19.327,11.051"/>
		</g>
		<path style="fill:#FFFFFF;stroke:#263238;stroke-linecap:round;stroke-linejoin:round;stroke-miterlimit:10;" d="M135.906,136.15
			c0,0,11.168,0,19.606,5.708c8.438,5.708,12.905,15.139,16.379,16.38c3.475,1.241,16.876-0.496,19.109,2.73
			c2.234,3.226,0,8.19-1.241,9.679c-1.241,1.489,5.708,3.971,6.453,4.715c0.745,0.745,1.489,3.226,0.745,4.219
			c-0.745,0.993,1.489-0.496,3.226,0.744c1.737,1.241,0.993,5.212,0.993,5.212s7.445,6.949,6.701,11.664
			c-0.744,4.715-5.956,10.671-13.401,13.898c-7.445,3.226-11.664,10.92-11.168,25.066c0.496,14.146,2.234,28.788,2.234,28.788
			s24.321,25.562,26.058,42.934s-19.606,31.518-35.241,18.117c-15.635-13.401-33.504-50.876-38.715-58.073
			c-5.212-7.197-0.496-29.533-14.146-42.438c-13.65-12.905-29.533-33.255-28.54-48.146
			C95.95,162.456,107.366,138.383,135.906,136.15z"/>
		<path style="fill:none;stroke:#263238;stroke-width:2;stroke-linecap:round;stroke-linejoin:round;stroke-miterlimit:10;" d="
			M169.384,162.016c0,0,1.108,4.132-6.923,5.404"/>
		<path style="fill:none;stroke:#263238;stroke-width:2;stroke-linecap:round;stroke-linejoin:round;stroke-miterlimit:10;" d="
			M164.841,151.937c0,0-6.631-2.91-10.819,6.548"/>
		<path style="fill:none;stroke:#263238;stroke-linecap:round;stroke-linejoin:round;stroke-miterlimit:10;" d="M159.979,217.302
			c0,0,1.985,3.226,9.679,1.737c7.693-1.489,14.394-4.467,14.394-4.467"/>
		<g>
			<path style="fill:#263238;stroke:#263238;stroke-linecap:round;stroke-linejoin:round;stroke-miterlimit:10;" d="M68.899,202.66
				c0,0-17.518,3.484-29.384,12.384c-11.866,8.899-19.282,32.928-16.019,49.837s10.679,29.665,6.229,34.708
				c-4.45,5.043-12.756,12.162-11.569,25.808c1.187,13.646,18.689,23.732,13.052,30.555c-5.636,6.823-12.756,17.205-4.746,28.775
				c8.01,11.569,19.579,10.976,19.579,14.239s-8.306,2.67-6.229,5.34s12.162-0.89,17.205-2.966
				c5.043-2.077,18.689-8.306,22.249-24.325c3.56-16.019-2.373-21.359,0-26.105c2.373-4.746,16.019-10.383,15.425-33.224
				c-0.593-22.842-4.746-51.023-16.315-67.635c-11.569-16.612-12.459-37.081-4.45-42.717
				C73.926,207.331,73.365,199.769,68.899,202.66z"/>
			<path style="fill:#263238;stroke:#263238;stroke-linecap:round;stroke-linejoin:round;stroke-miterlimit:10;" d="
				M115.804,131.931c0,0,18.861-7.693,22.087-4.467c3.226,3.226,8.438,18.365,7.445,30.277c-0.993,11.912-4.467,15.387-0.993,19.358
				c3.474,3.971,7.445,10.671,4.963,14.394c-2.482,3.723-17.124,1.241-18.613,5.212c-1.489,3.971-0.496,19.109,2.978,23.577
				c3.474,4.467,10.671,16.131,3.723,23.825c-6.949,7.693-18.613,10.92-32.263,5.956c-13.649-4.963-23.328-20.102-21.839-30.029
				c1.489-9.927-12.905-7.693-14.394-17.372c-1.489-9.679-1.985-17.869,2.482-31.766C75.848,156.996,80.165,143.319,115.804,131.931
				z"/>
			<g>
				<path style="fill:none;stroke:#828282;stroke-linecap:round;stroke-linejoin:round;stroke-miterlimit:10;" d="M69.387,316.261
					c1.629,6.198,2.171,12.444,0.851,18.89c-5.508,26.891-37.716,11.891-28.45-0.022c9.265-11.913,16.325-1.765,16.325-1.765"/>
				<path style="fill:none;stroke:#828282;stroke-linecap:round;stroke-linejoin:round;stroke-miterlimit:10;" d="M45.998,239.982
					c-0.607,4.156-0.757,8.801-0.24,13.965c2.168,21.681,16.071,39.688,22.258,57.798"/>
				<path style="fill:none;stroke:#828282;stroke-linecap:round;stroke-linejoin:round;stroke-miterlimit:10;" d="M63.406,210.709
					c0,0-10.391,6.191-15.367,20.763"/>
				<path style="fill:none;stroke:#828282;stroke-linecap:round;stroke-linejoin:round;stroke-miterlimit:10;" d="M88.043,309.551
					c0.814,4.592,0.654,9.092-0.812,13.665"/>
				<path style="fill:none;stroke:#828282;stroke-linecap:round;stroke-linejoin:round;stroke-miterlimit:10;" d="M65.171,216.444
					c0,0-14.119,23.384,0,48.091c8.352,14.616,16.508,26.34,20.615,37.108"/>
				<path style="fill:none;stroke:#828282;stroke-linecap:round;stroke-linejoin:round;stroke-miterlimit:10;" d="M125.098,161.627
					c-1.772,8.543-4.92,17.651-10.512,23.05c-12.795,12.354-35.297,19.854-37.502,18.531"/>
				<path style="fill:none;stroke:#828282;stroke-linecap:round;stroke-linejoin:round;stroke-miterlimit:10;" d="M127.381,140.557
					c0,0,0,5.957-1.039,13.715"/>
				<path style="fill:none;stroke:#828282;stroke-linecap:round;stroke-linejoin:round;stroke-miterlimit:10;" d="M115.39,214.385
					c2.441-0.646,4.846-1.555,7.137-2.793"/>
				<path style="fill:none;stroke:#828282;stroke-linecap:round;stroke-linejoin:round;stroke-miterlimit:10;" d="M84.143,212.473
					c0,0,11.106,3.998,23.389,3.169"/>
			</g>
		</g>
		<g>
			<path style="fill:#FFFFFF;stroke:#263238;stroke-linecap:round;stroke-linejoin:round;stroke-miterlimit:10;" d="
				M133.255,247.082c0,0-4.153,0-5.636,3.56c-1.483,3.56-2.373,5.636-2.373,5.636s-9.196-0.89-10.679,3.856
				c-1.483,4.746-1.187,6.526-1.187,6.526s-5.34,2.966-5.34,8.306c0,5.34,2.373,8.009,6.526,10.383
				c4.153,2.373,17.206,11.866,21.062,21.358c3.856,9.493-1.483,50.43,5.933,54.879c7.416,4.45,22.842,4.746,22.842,4.746
				s0.593,10.679,5.636,12.756c5.043,2.077,19.875,1.483,33.521-8.603c13.646-10.086,19.282-19.875,17.206-24.325
				c-2.077-4.45-15.426-12.459-24.028-32.631s-31.741-49.54-43.607-57.846C141.265,247.378,133.255,247.082,133.255,247.082z"/>
			
				<line style="fill:#FFFFFF;stroke:#263238;stroke-linecap:round;stroke-linejoin:round;stroke-miterlimit:10;" x1="164.403" y1="366.333" x2="163.377" y2="357.941"/>
			<path style="fill:none;stroke:#263238;stroke-linecap:round;stroke-linejoin:round;stroke-miterlimit:10;" d="M128.806,257.464
				c0,0,21.359,9.196,33.224,28.478"/>
			<path style="fill:none;stroke:#263238;stroke-linecap:round;stroke-linejoin:round;stroke-miterlimit:10;" d="M139.002,283.833
				c1.42,2.109,2.782,4.482,4.043,7.152"/>
			<path style="fill:none;stroke:#263238;stroke-linecap:round;stroke-linejoin:round;stroke-miterlimit:10;" d="M116.347,267.254
				c0,0,11.542,1.649,21.226,14.567"/>
			<path style="fill:#FFFFFF;stroke:#263238;stroke-linecap:round;stroke-linejoin:round;stroke-miterlimit:10;" d="
				M141.561,361.587c0,0-3.263-5.933,7.12-6.526s15.425,3.56,20.172,5.043c4.746,1.483,23.435,2.966,34.708-7.416
				c0,0-6.823-10.679-11.569-26.698c-4.746-16.019-7.12-32.334-16.316-45.09"/>
			<path style="fill:none;stroke:#263238;stroke-linecap:round;stroke-linejoin:round;stroke-miterlimit:10;" d="M166.816,299.909
				c0.431,1.535,0.829,3.135,1.147,4.722"/>
			<path style="fill:none;stroke:#263238;stroke-linecap:round;stroke-linejoin:round;stroke-miterlimit:10;" d="M163.217,289.502
				c0,0,1.191,2.815,2.461,6.679"/>
		</g>
		<g>
			<path style="fill:#FFFFFF;stroke:#263238;stroke-linecap:round;stroke-linejoin:round;stroke-miterlimit:10;" d="
				M216.225,160.585c0,0-0.027-3.499-1.519-4.162c-1.491-0.663-4.473,0.331-4.97,2.982c-0.497,2.651,0.231,6.061,0.231,6.061
				S213.906,161.745,216.225,160.585z"/>
			<path style="fill:#FFFFFF;stroke:#263238;stroke-linecap:round;stroke-linejoin:round;stroke-miterlimit:10;" d="
				M240.431,155.451c0,0-0.492-2.039-2.742-2.602s-4.5,1.055-4.922,2.531c-0.422,1.477,0.281,2.602,2.672,3.164
				c2.391,0.563,4.57,0.07,5.063-0.844C240.994,156.787,240.431,155.451,240.431,155.451z"/>
			<path style="fill:#FFFFFF;stroke:#263238;stroke-linecap:round;stroke-linejoin:round;stroke-miterlimit:10;" d="
				M249.572,155.873c0,0-0.492-2.039-2.742-2.602c-2.25-0.563-4.5,1.055-4.922,2.531c-0.422,1.477,0.281,2.602,2.672,3.164
				c2.391,0.563,4.57,0.07,5.063-0.844C250.135,157.209,249.572,155.873,249.572,155.873z"/>
			<path style="fill:#FFFFFF;stroke:#263238;stroke-linecap:round;stroke-linejoin:round;stroke-miterlimit:10;" d="
				M264.374,154.943c0,0-0.393-1.271-2.139-1.607c-1.746-0.336-3.479,0.69-3.798,1.616c-0.319,0.926,0.232,1.624,2.087,1.959
				c1.855,0.335,3.54,0.012,3.916-0.562C264.817,155.774,264.374,154.943,264.374,154.943z"/>
		</g>
		<g>
			<path style="fill:#FFFFFF;stroke:#263238;stroke-linecap:round;stroke-linejoin:round;stroke-miterlimit:10;" d="
				M322.365,173.937l-0.548-6.022c0,0,1.451-4.803,0.09-8.964c-1.36-4.161-4.839-4.132-6.83-4.424s-30.323-0.518-33.129,0.742
				c-2.806,1.26-3.635,1.112-3.635,1.112l-35.609,1.381l-3.148,0.026c0,0-13.26-0.661-20.365,1.562
				c-7.105,2.223-11.686,9.216-11.686,9.216l-3.479,0.029l0.053,6.336l0.053,6.335l3.479-0.029c0,0,4.697,6.915,11.839,9.018
				s20.389,1.22,20.389,1.22l3.148-0.026l35.627,0.782c0,0,0.827-0.161,3.654,1.051c2.827,1.213,31.152,0.511,33.137,0.185
				c1.985-0.326,5.464-0.355,6.755-4.538c1.29-4.183-0.241-8.961-0.241-8.961L322.365,173.937z"/>
			<path style="fill:#92E3A9;stroke:#263238;stroke-linecap:round;stroke-linejoin:round;stroke-miterlimit:10;" d="
				M322.365,173.937l-0.548-6.022c0,0,1.451-4.803,0.09-8.964c-1.36-4.161-4.839-4.132-6.83-4.424
				c-0.167-0.024-0.533-0.048-1.04-0.071l-108.557,21.766l-1.382,0.806l0.036,4.238l3.479-0.029c0,0,4.697,6.915,11.839,9.018
				s20.389,1.22,20.389,1.22l3.148-0.026l35.627,0.782c0,0,0.827-0.161,3.654,1.051c2.827,1.213,31.152,0.511,33.137,0.185
				c1.985-0.326,5.464-0.355,6.755-4.538c1.29-4.183-0.241-8.961-0.241-8.961L322.365,173.937z"/>
			
				<rect x="201.76" y="167.919" transform="matrix(1 -0.0084 0.0084 1 -1.464 1.7147)" style="fill:#92E3A9;stroke:#263238;stroke-linecap:round;stroke-linejoin:round;stroke-miterlimit:10;" width="2.651" height="13.916"/>
			
				<rect x="197.619" y="168.776" transform="matrix(1 -0.0084 0.0084 1 -1.4636 1.6829)" style="fill:#FFFFFF;stroke:#263238;stroke-linecap:round;stroke-linejoin:round;stroke-miterlimit:10;" width="3.976" height="12.591"/>
		</g>
		<path style="fill:#FFFFFF;stroke:#263238;stroke-linecap:round;stroke-linejoin:round;stroke-miterlimit:10;" d="M248.172,228.159
			c-4.142-1.325-11.431-10.603-14.91-15.573c-3.479-4.97-4.142-13.585-4.142-17.727s5.301-10.272,5.301-10.272
			s1.657-5.964,5.136-3.81c3.479,2.154,2.816,10.106,1.988,12.757c-0.828,2.651-1.491,2.982-0.994,3.81
			c0.497,0.828,4.639,1.325,11.1,5.633c6.461,4.308,5.467,12.094,5.467,12.094"/>
		<path style="fill:none;stroke:#263238;stroke-linecap:round;stroke-linejoin:round;stroke-miterlimit:10;" d="M217.854,162.884
			c0,0,0,4.142,2.982,7.786c2.982,3.645,5.633,6.627,7.952,6.461"/>
		<path style="fill:none;stroke:#263238;stroke-linecap:round;stroke-linejoin:round;stroke-miterlimit:10;" d="M232.765,160.233
			c0,0,2.651,9.278,0.663,12.757"/>
		<path style="fill:none;stroke:#263238;stroke-linecap:round;stroke-linejoin:round;stroke-miterlimit:10;" d="M241.711,162.553
			c0,0,0.166,11.763,1.657,11.431c1.491-0.331,0-9.443,0-9.443"/>
		<path style="fill:none;stroke:#263238;stroke-linecap:round;stroke-linejoin:round;stroke-miterlimit:10;" d="M250.326,158.908
			c0,0,2.319,5.799,2.319,9.94c0,4.142,0.166,6.13,1.988,6.13"/>
		<path style="fill:none;stroke:#263238;stroke-linecap:round;stroke-linejoin:round;stroke-miterlimit:10;" d="M259.603,158.908
			c0,0-0.166,2.485,0.497,4.804c0.663,2.319-1.822,7.29-1.822,7.29"/>
		<path style="fill:none;stroke:#263238;stroke-linecap:round;stroke-linejoin:round;stroke-miterlimit:10;" d="M266.23,158.08
			c0,0,1.325,11.431-0.166,16.402c-1.491,4.97-0.663,11.431-0.663,11.431"/>
		<path style="fill:none;stroke:#263238;stroke-linecap:round;stroke-linejoin:round;stroke-miterlimit:10;" d="M211.559,169.18
			c0,0,3.313,8.946,5.136,12.757c1.822,3.81,5.467,7.786,5.467,7.786"/>
		<path style="fill:none;stroke:#263238;stroke-linecap:round;stroke-linejoin:round;stroke-miterlimit:10;" d="M317.495,310.268
			c2.436,0.59,5.056,0.927,7.863,0.927"/>
		<path style="fill:none;stroke:#263238;stroke-linecap:round;stroke-linejoin:round;stroke-miterlimit:10;" d="M292.406,289.623
			c0,0,6.152,12.645,19.115,18.573"/>
		<path style="fill:#FFFFFF;stroke:#263238;stroke-linecap:round;stroke-linejoin:round;stroke-miterlimit:10;" d="M141.118,195.215
			c0,0-9.679-5.212-15.635,0c-5.956,5.212,4.963,15.883,13.898,18.613c8.934,2.73,12.161-0.993,12.409-4.467"/>
	</g>
</g>
<g id="Sun">
	<g>
		
			<ellipse transform="matrix(0.2328 -0.9725 0.9725 0.2328 13.3509 136.9401)" style="fill:#92E3A9;" cx="93.472" cy="60.008" rx="29.972" ry="29.972"/>
		<g>
			<line style="fill:none;stroke:#92E3A9;stroke-miterlimit:10;" x1="92.673" y1="96.161" x2="92.673" y2="106.534"/>
			<line style="fill:none;stroke:#92E3A9;stroke-miterlimit:10;" x1="92.673" y1="14.477" x2="92.673" y2="24.85"/>
		</g>
		<g>
			<line style="fill:none;stroke:#92E3A9;stroke-miterlimit:10;" x1="57.018" y1="60.506" x2="46.645" y2="60.506"/>
			<line style="fill:none;stroke:#92E3A9;stroke-miterlimit:10;" x1="138.702" y1="60.506" x2="128.329" y2="60.506"/>
		</g>
		<g>
			<line style="fill:none;stroke:#92E3A9;stroke-miterlimit:10;" x1="67.461" y1="85.718" x2="60.127" y2="93.052"/>
			<line style="fill:none;stroke:#92E3A9;stroke-miterlimit:10;" x1="125.22" y1="27.959" x2="117.886" y2="35.293"/>
		</g>
		<g>
			<line style="fill:none;stroke:#92E3A9;stroke-miterlimit:10;" x1="117.886" y1="85.718" x2="125.22" y2="93.052"/>
			<line style="fill:none;stroke:#92E3A9;stroke-miterlimit:10;" x1="60.127" y1="27.959" x2="67.461" y2="35.293"/>
		</g>
	</g>
</g>
</svg>
