<?xml version="1.0" encoding="utf-8"?>
<!-- Generator: Adobe Illustrator 27.5.0, SVG Export Plug-In . SVG Version: 6.00 Build 0)  -->
<svg version="1.1" xmlns="http://www.w3.org/2000/svg" xmlns:xlink="http://www.w3.org/1999/xlink" x="0px" y="0px"
	 viewBox="0 0 700 500" style="enable-background:new 0 0 700 500;" xml:space="preserve">
<g id="Background_Simple">
	<g>
		<path style="fill:#92E3A9;" d="M532.56,446.194c33.088-63.687,103.216-209.505,73.264-257.057
			c-29.154-46.284-72.844-17.211-127.332-45.508c-54.488-28.297-23.93-123.223-119.741-124.583
			c-94.085-1.336-106.481,154.68-143.469,170.091c-36.988,15.411-124.503-46.811-143.353,42.827
			c-14.665,69.736,59.602,172.176,93.305,214.231H532.56z"/>
		<path style="opacity:0.7;fill:#FFFFFF;" d="M532.56,446.194c33.088-63.687,103.216-209.505,73.264-257.057
			c-29.154-46.284-72.844-17.211-127.332-45.508c-54.488-28.297-23.93-123.223-119.741-124.583
			c-94.085-1.336-106.481,154.68-143.469,170.091c-36.988,15.411-124.503-46.811-143.353,42.827
			c-14.665,69.736,59.602,172.176,93.305,214.231H532.56z"/>
	</g>
</g>
<g id="Shadow">
	<g>
		<path style="fill:#858585;" d="M596.775,446.194H85.861c-6.533,2.926-11.909,6.592-7.153,9.523
			c9.475,5.84,72.421-3.893,58.143,19.465c-14.279,23.358,142.741-5.191,159.611-4.542c16.87,0.649,29.198,13.746,55.152,13.746
			c25.954,0,28.072-16.771,44.856-16.771c16.784,0,136.004,20.333,186.698,0C605.54,458.641,604.696,451.44,596.775,446.194z"/>
		<path style="opacity:0.6;fill:#FFFFFF;" d="M596.775,446.194H85.861c-6.533,2.926-11.909,6.592-7.153,9.523
			c9.475,5.84,72.421-3.893,58.143,19.465c-14.279,23.358,142.741-5.191,159.611-4.542c16.87,0.649,29.198,13.746,55.152,13.746
			c25.954,0,28.072-16.771,44.856-16.771c16.784,0,136.004,20.333,186.698,0C605.54,458.641,604.696,451.44,596.775,446.194z"/>
	</g>
</g>
<g id="Table">
	
		<line style="fill:#263238;stroke:#263238;stroke-width:0.75;stroke-linecap:round;stroke-linejoin:round;stroke-miterlimit:10;" x1="71.965" y1="446.194" x2="600.467" y2="446.194"/>
</g>
<g id="Cloud">
	<g>
		<g>
			<path style="fill:none;stroke:#263238;stroke-width:0.75;stroke-linecap:round;stroke-linejoin:round;stroke-miterlimit:10;" d="
				M426.822,84.706c9.314,0,22.333,0,31.469,0"/>
			<path style="fill:none;stroke:#263238;stroke-width:0.75;stroke-linecap:round;stroke-linejoin:round;stroke-miterlimit:10;" d="
				M421.09,84.706c0.864,0,1.805,0,2.812,0"/>
			<path style="fill:none;stroke:#263238;stroke-width:0.75;stroke-linecap:round;stroke-linejoin:round;stroke-miterlimit:10;" d="
				M416.618,37.142c-13.134,0-23.782,10.648-23.782,23.782c0,13.134,10.647,23.782,23.782,23.782"/>
			<path style="fill:none;stroke:#263238;stroke-width:0.75;stroke-linecap:round;stroke-linejoin:round;stroke-miterlimit:10;" d="
				M445.613,16.925c-12.143,0-22.141,9.106-23.584,20.859"/>
			<path style="fill:none;stroke:#263238;stroke-width:0.75;stroke-linecap:round;stroke-linejoin:round;stroke-miterlimit:10;" d="
				M467.996,84.706c11.615,0,21.032-9.416,21.032-21.031c0-11.177-8.726-20.292-19.734-20.966c0.055-0.662,0.101-1.326,0.101-2.002
				c0-11.129-7.644-20.472-17.968-23.066"/>
		</g>
		<g>
			<path style="fill:none;stroke:#263238;stroke-width:0.75;stroke-linecap:round;stroke-linejoin:round;stroke-miterlimit:10;" d="
				M509.381,114.529c0.531-0.755,0.998-1.559,1.391-2.404l3.107,0.051c0.463-1.203,0.807-2.464,1.012-3.772l-2.72-1.511
				c0.04-0.458,0.064-0.92,0.064-1.388c0-0.468-0.024-0.93-0.064-1.388l2.72-1.511c-0.205-1.308-0.549-2.57-1.012-3.772
				l-3.107,0.052c-0.393-0.845-0.86-1.648-1.391-2.404l1.598-2.665c-0.822-1.015-1.748-1.941-2.763-2.763l-2.665,1.598
				c-0.755-0.531-1.559-0.998-2.404-1.391l0.052-3.107c-1.203-0.463-2.464-0.807-3.772-1.012l-1.511,2.72"/>
			<path style="fill:none;stroke:#263238;stroke-width:0.75;stroke-linecap:round;stroke-linejoin:round;stroke-miterlimit:10;" d="
				M482.859,113.243c0.251,0.442,0.523,0.871,0.815,1.286l-1.598,2.665c0.822,1.015,1.748,1.941,2.763,2.763l2.665-1.598
				c0.755,0.531,1.559,0.998,2.404,1.391l-0.051,3.107c1.203,0.463,2.464,0.807,3.772,1.012l1.511-2.72
				c0.458,0.04,0.92,0.064,1.388,0.064c0.468,0,0.93-0.024,1.388-0.064l1.511,2.72c1.308-0.205,2.569-0.549,3.772-1.012
				l-0.052-3.107c0.845-0.393,1.648-0.86,2.404-1.391l2.665,1.598c1.015-0.822,1.941-1.748,2.763-2.763"/>
			<path style="fill:none;stroke:#263238;stroke-width:0.75;stroke-linecap:round;stroke-linejoin:round;stroke-miterlimit:10;" d="
				M480.4,98.855l-1.224-0.02c-0.463,1.203-0.807,2.464-1.012,3.772l2.72,1.511c-0.04,0.458-0.065,0.92-0.065,1.388
				c0,0.468,0.024,0.93,0.065,1.388l-2.72,1.511c0.205,1.308,0.549,2.57,1.012,3.772l3.107-0.051"/>
			<path style="fill:none;stroke:#263238;stroke-width:0.75;stroke-linecap:round;stroke-linejoin:round;stroke-miterlimit:10;" d="
				M495.14,89.863l-1.511-2.72c-1.308,0.205-2.57,0.549-3.772,1.012l0.051,3.107c-0.845,0.393-1.648,0.86-2.404,1.391l-2.665-1.598
				c-1.015,0.822-1.941,1.748-2.763,2.763l1.598,2.665c-0.531,0.755-0.998,1.559-1.391,2.404"/>
			<path style="fill:none;stroke:#263238;stroke-width:0.75;stroke-linecap:round;stroke-linejoin:round;stroke-miterlimit:10;" d="
				M494.488,115.422c-4.612-0.944-8.082-5.025-8.082-9.916c0-5.59,4.532-10.122,10.122-10.122"/>
			<path style="fill:none;stroke:#263238;stroke-width:0.75;stroke-linecap:round;stroke-linejoin:round;stroke-miterlimit:10;" d="
				M506.37,107.877c-1.067,4.446-5.069,7.75-9.842,7.75"/>
			<path style="fill:none;stroke:#263238;stroke-width:0.75;stroke-linecap:round;stroke-linejoin:round;stroke-miterlimit:10;" d="
				M506.611,106.388c-0.021,0.24-0.05,0.477-0.087,0.712"/>
			<path style="fill:none;stroke:#263238;stroke-width:0.75;stroke-linecap:round;stroke-linejoin:round;stroke-miterlimit:10;" d="
				M500.221,96.079c3.763,1.476,6.428,5.14,6.428,9.427"/>
		</g>
		<g>
			<path style="fill:none;stroke:#263238;stroke-width:0.75;stroke-linecap:round;stroke-linejoin:round;stroke-miterlimit:10;" d="
				M523.772,83.822c0.294-0.418,0.552-0.862,0.77-1.33l1.719,0.028c0.256-0.666,0.446-1.363,0.56-2.087l-1.505-0.836
				c0.022-0.253,0.036-0.509,0.036-0.768c0-0.259-0.013-0.514-0.036-0.768l1.505-0.836c-0.113-0.724-0.304-1.422-0.56-2.087
				l-1.719,0.028c-0.218-0.467-0.476-0.912-0.77-1.33l0.884-1.475c-0.455-0.561-0.967-1.074-1.529-1.529l-1.475,0.884
				c-0.418-0.294-0.862-0.552-1.33-0.77l0.028-1.719c-0.665-0.256-1.363-0.447-2.087-0.56l-0.836,1.505"/>
			<path style="fill:none;stroke:#263238;stroke-width:0.75;stroke-linecap:round;stroke-linejoin:round;stroke-miterlimit:10;" d="
				M509.098,83.11c0.139,0.245,0.29,0.482,0.451,0.712l-0.884,1.475c0.455,0.562,0.967,1.074,1.529,1.529l1.475-0.884
				c0.418,0.294,0.862,0.552,1.33,0.77l-0.029,1.719c0.665,0.256,1.363,0.446,2.087,0.56l0.836-1.505
				c0.253,0.022,0.509,0.036,0.768,0.036c0.259,0,0.515-0.013,0.768-0.036l0.836,1.505c0.724-0.113,1.422-0.304,2.087-0.56
				l-0.028-1.719c0.467-0.218,0.912-0.476,1.33-0.77l1.475,0.884c0.561-0.455,1.074-0.967,1.529-1.529"/>
			<path style="fill:none;stroke:#263238;stroke-width:0.75;stroke-linecap:round;stroke-linejoin:round;stroke-miterlimit:10;" d="
				M507.738,75.15l-0.677-0.011c-0.256,0.666-0.446,1.363-0.56,2.087l1.505,0.836c-0.022,0.253-0.036,0.509-0.036,0.768
				c0,0.259,0.014,0.515,0.036,0.768l-1.505,0.836c0.113,0.724,0.304,1.422,0.56,2.087l1.719-0.028"/>
			<path style="fill:none;stroke:#263238;stroke-width:0.75;stroke-linecap:round;stroke-linejoin:round;stroke-miterlimit:10;" d="
				M515.893,70.175l-0.836-1.505c-0.724,0.113-1.422,0.304-2.087,0.56l0.029,1.719c-0.468,0.218-0.912,0.476-1.33,0.77l-1.475-0.884
				c-0.562,0.455-1.074,0.967-1.529,1.529l0.884,1.475c-0.294,0.418-0.552,0.862-0.77,1.33"/>
		</g>
	</g>
	<g>
		<g>
			<path style="fill:none;stroke:#263238;stroke-width:0.75;stroke-linecap:round;stroke-linejoin:round;stroke-miterlimit:10;" d="
				M245.783,83.799c6.827,0,16.368,0,23.065,0"/>
			<path style="fill:none;stroke:#263238;stroke-width:0.75;stroke-linecap:round;stroke-linejoin:round;stroke-miterlimit:10;" d="
				M241.583,83.799c0.633,0,1.323,0,2.061,0"/>
			<path style="fill:none;stroke:#263238;stroke-width:0.75;stroke-linecap:round;stroke-linejoin:round;stroke-miterlimit:10;" d="
				M238.305,48.938c-9.627,0-17.43,7.804-17.43,17.431c0,9.627,7.804,17.431,17.43,17.431"/>
			<path style="fill:none;stroke:#263238;stroke-width:0.75;stroke-linecap:round;stroke-linejoin:round;stroke-miterlimit:10;" d="
				M259.556,34.12c-8.9,0-16.228,6.674-17.286,15.288"/>
			<path style="fill:none;stroke:#263238;stroke-width:0.75;stroke-linecap:round;stroke-linejoin:round;stroke-miterlimit:10;" d="
				M275.961,83.799c8.513,0,15.414-6.901,15.414-15.415c0-8.192-6.396-14.873-14.464-15.366c0.04-0.485,0.074-0.972,0.074-1.467
				c0-8.156-5.603-15.004-13.169-16.906"/>
		</g>
		<g>
			<path style="fill:none;stroke:#263238;stroke-width:0.75;stroke-linecap:round;stroke-linejoin:round;stroke-miterlimit:10;" d="
				M217.404,115.112c0.565-0.804,1.062-1.659,1.481-2.558l3.307,0.055c0.493-1.28,0.859-2.623,1.077-4.015l-2.895-1.609
				c0.043-0.487,0.069-0.979,0.069-1.477c0-0.498-0.026-0.99-0.069-1.477l2.895-1.608c-0.218-1.393-0.585-2.735-1.077-4.015
				l-3.307,0.055c-0.419-0.9-0.915-1.755-1.481-2.558l1.701-2.837c-0.875-1.08-1.861-2.066-2.941-2.941l-2.837,1.701
				c-0.804-0.565-1.659-1.062-2.559-1.481l0.055-3.307c-1.28-0.493-2.623-0.859-4.016-1.077l-1.609,2.896"/>
			<path style="fill:none;stroke:#263238;stroke-width:0.75;stroke-linecap:round;stroke-linejoin:round;stroke-miterlimit:10;" d="
				M189.173,113.743c0.267,0.471,0.557,0.927,0.867,1.369l-1.701,2.837c0.875,1.08,1.861,2.066,2.941,2.941l2.837-1.701
				c0.804,0.565,1.659,1.062,2.559,1.481l-0.055,3.307c1.28,0.493,2.623,0.859,4.015,1.077l1.609-2.896
				c0.487,0.043,0.979,0.069,1.477,0.069c0.498,0,0.99-0.026,1.477-0.069l1.609,2.896c1.393-0.218,2.735-0.585,4.016-1.077
				l-0.055-3.307c0.899-0.419,1.755-0.915,2.559-1.481l2.837,1.701c1.08-0.875,2.066-1.861,2.941-2.941"/>
			<path style="fill:none;stroke:#263238;stroke-width:0.75;stroke-linecap:round;stroke-linejoin:round;stroke-miterlimit:10;" d="
				M186.556,98.428l-1.303-0.022c-0.492,1.28-0.859,2.623-1.077,4.015l2.896,1.608c-0.043,0.487-0.069,0.979-0.069,1.477
				c0,0.498,0.026,0.99,0.069,1.477l-2.896,1.609c0.218,1.393,0.585,2.735,1.077,4.015l3.307-0.055"/>
			<path style="fill:none;stroke:#263238;stroke-width:0.75;stroke-linecap:round;stroke-linejoin:round;stroke-miterlimit:10;" d="
				M202.245,88.856l-1.609-2.896c-1.392,0.218-2.735,0.584-4.015,1.077l0.055,3.307c-0.9,0.419-1.755,0.915-2.559,1.481
				l-2.837-1.701c-1.08,0.875-2.066,1.861-2.941,2.941l1.701,2.837c-0.565,0.804-1.062,1.659-1.481,2.558"/>
			<path style="fill:none;stroke:#263238;stroke-width:0.75;stroke-linecap:round;stroke-linejoin:round;stroke-miterlimit:10;" d="
				M201.551,116.062c-4.909-1.005-8.603-5.349-8.603-10.555c0-5.95,4.824-10.774,10.774-10.774"/>
			<path style="fill:none;stroke:#263238;stroke-width:0.75;stroke-linecap:round;stroke-linejoin:round;stroke-miterlimit:10;" d="
				M214.199,108.032c-1.136,4.732-5.396,8.249-10.477,8.249"/>
			<path style="fill:none;stroke:#263238;stroke-width:0.75;stroke-linecap:round;stroke-linejoin:round;stroke-miterlimit:10;" d="
				M214.456,106.446c-0.022,0.255-0.053,0.508-0.093,0.758"/>
			<path style="fill:none;stroke:#263238;stroke-width:0.75;stroke-linecap:round;stroke-linejoin:round;stroke-miterlimit:10;" d="
				M207.654,95.474c4.006,1.571,6.842,5.471,6.842,10.034"/>
		</g>
		<g>
			<path style="fill:none;stroke:#263238;stroke-width:0.75;stroke-linecap:round;stroke-linejoin:round;stroke-miterlimit:10;" d="
				M176.189,104.579c0.425-0.604,0.798-1.247,1.113-1.922l2.485,0.041c0.37-0.962,0.645-1.971,0.809-3.017l-2.176-1.208
				c0.032-0.366,0.051-0.736,0.051-1.11c0-0.374-0.02-0.744-0.051-1.11l2.176-1.208c-0.164-1.046-0.439-2.055-0.809-3.017
				l-2.485,0.041c-0.315-0.676-0.688-1.318-1.113-1.922l1.278-2.132c-0.657-0.812-1.398-1.552-2.21-2.21l-2.132,1.278
				c-0.604-0.425-1.246-0.798-1.922-1.113l0.041-2.485c-0.962-0.37-1.971-0.645-3.017-0.809l-1.209,2.176"/>
			<path style="fill:none;stroke:#263238;stroke-width:0.75;stroke-linecap:round;stroke-linejoin:round;stroke-miterlimit:10;" d="
				M154.978,103.551c0.201,0.354,0.418,0.697,0.652,1.029l-1.278,2.132c0.657,0.812,1.398,1.552,2.21,2.21l2.132-1.278
				c0.604,0.425,1.247,0.798,1.922,1.112l-0.041,2.485c0.962,0.37,1.971,0.646,3.017,0.809l1.208-2.176
				c0.366,0.032,0.736,0.052,1.11,0.052c0.374,0,0.744-0.02,1.11-0.052l1.209,2.176c1.046-0.164,2.055-0.439,3.017-0.809
				l-0.041-2.485c0.676-0.314,1.318-0.688,1.922-1.112l2.132,1.278c0.811-0.657,1.552-1.398,2.21-2.21"/>
			<path style="fill:none;stroke:#263238;stroke-width:0.75;stroke-linecap:round;stroke-linejoin:round;stroke-miterlimit:10;" d="
				M153.011,92.044l-0.979-0.016c-0.37,0.962-0.645,1.971-0.809,3.017l2.175,1.208c-0.032,0.366-0.052,0.736-0.052,1.11
				c0,0.374,0.02,0.744,0.052,1.11l-2.175,1.208c0.164,1.046,0.439,2.055,0.809,3.017l2.485-0.041"/>
			<path style="fill:none;stroke:#263238;stroke-width:0.75;stroke-linecap:round;stroke-linejoin:round;stroke-miterlimit:10;" d="
				M164.799,84.852l-1.208-2.176c-1.046,0.164-2.055,0.439-3.017,0.809l0.041,2.485c-0.676,0.315-1.318,0.688-1.922,1.113
				l-2.132-1.278c-0.812,0.657-1.552,1.398-2.21,2.21l1.278,2.132c-0.425,0.604-0.798,1.246-1.113,1.922"/>
			<path style="fill:none;stroke:#263238;stroke-width:0.75;stroke-linecap:round;stroke-linejoin:round;stroke-miterlimit:10;" d="
				M164.796,102.775c-2.518-0.515-4.411-2.743-4.411-5.412c0-3.051,2.473-5.524,5.525-5.524"/>
			<path style="fill:none;stroke:#263238;stroke-width:0.75;stroke-linecap:round;stroke-linejoin:round;stroke-miterlimit:10;" d="
				M171.281,98.657c-0.583,2.426-2.767,4.23-5.372,4.23"/>
			<path style="fill:none;stroke:#263238;stroke-width:0.75;stroke-linecap:round;stroke-linejoin:round;stroke-miterlimit:10;" d="
				M167.925,92.218c2.054,0.806,3.508,2.806,3.508,5.145"/>
		</g>
	</g>
</g>
<g id="Plant">
	<g>
		<g>
			<path style="fill:#92E3A9;" d="M349.938,408.677c0,0-32.77-18.944-28.4-24.218c4.369-5.274,19.389,9.472,19.389,9.472
				s-28.946-36.318-23.758-40.005c5.189-3.688,19.935,20.343,19.935,20.343s-17.75-40.054-10.923-41.191
				c6.827-1.137,17.75,34.637,17.75,34.637s-4.642-25.396,0-25.943c4.642-0.546,7.919,40.235,7.919,40.235
				s-0.23-19.187,3.845-19.061C359.769,363.073,361.408,405.946,349.938,408.677z"/>
			<path style="opacity:0.4;fill:#FFFFFF;" d="M349.938,408.677c0,0-32.77-18.944-28.4-24.218
				c4.369-5.274,19.389,9.472,19.389,9.472s-28.946-36.318-23.758-40.005c5.189-3.688,19.935,20.343,19.935,20.343
				s-17.75-40.054-10.923-41.191c6.827-1.137,17.75,34.637,17.75,34.637s-4.642-25.396,0-25.943
				c4.642-0.546,7.919,40.235,7.919,40.235s-0.23-19.187,3.845-19.061C359.769,363.073,361.408,405.946,349.938,408.677z"/>
		</g>
		<g>
			<path style="fill:#92E3A9;" d="M355.074,407.085c0,0,25.954-15.004,22.493-19.181c-3.461-4.177-15.356,7.502-15.356,7.502
				s22.926-28.764,18.816-31.684c-4.109-2.921-15.789,16.112-15.789,16.112s14.058-31.723,8.651-32.623
				c-5.407-0.9-14.058,27.433-14.058,27.433s3.677-20.114,0-20.547c-3.677-0.433-6.272,31.866-6.272,31.866
				s0.182-15.197-3.045-15.096C347.288,370.966,345.991,404.922,355.074,407.085z"/>
			<path style="opacity:0.2;" d="M355.074,407.085c0,0,25.954-15.004,22.493-19.181c-3.461-4.177-15.356,7.502-15.356,7.502
				s22.926-28.764,18.816-31.684c-4.109-2.921-15.789,16.112-15.789,16.112s14.058-31.723,8.651-32.623
				c-5.407-0.9-14.058,27.433-14.058,27.433s3.677-20.114,0-20.547c-3.677-0.433-6.272,31.866-6.272,31.866
				s0.182-15.197-3.045-15.096C347.288,370.966,345.991,404.922,355.074,407.085z"/>
		</g>
		<path id="XMLID_95_" style="fill:#263238;" d="M327.09,401.981v2.008c0,1.767,1.177,3.243,2.785,3.732l2.964,31.489
			c0.39,4.148,3.873,7.318,8.039,7.318h21.941c4.167,0,7.649-3.17,8.039-7.318l2.964-31.489c1.607-0.489,2.785-1.965,2.785-3.732
			v-2.008H327.09z"/>
		<path style="fill:none;stroke:#7F7F7F;stroke-width:0.75;stroke-linecap:round;stroke-linejoin:round;" d="M330.371,413.01
			c0.986,0.143,2.024-0.156,2.777-0.908l2.582-2.595c1.272-1.259,3.309-1.259,4.581,0l2.582,2.595c1.272,1.259,3.322,1.259,4.581,0
			l2.595-2.595c1.259-1.259,3.309-1.259,4.568,0l2.595,2.595c1.259,1.259,3.309,1.259,4.568,0l2.595-2.595
			c1.259-1.259,3.309-1.259,4.581,0l2.582,2.595c0.506,0.506,1.116,0.805,1.765,0.895"/>
	</g>
</g>
<g id="Interface">
	<g>
		<g>
			<defs>
				<path id="XMLID_31_" d="M437.723,323.23H247.294c-5.387,0-9.755-4.367-9.755-9.755V123.047c0-5.388,4.367-9.755,9.755-9.755
					h190.429c5.387,0,9.755,4.367,9.755,9.755v190.429C447.478,318.863,443.111,323.23,437.723,323.23z"/>
			</defs>
			<use xlink:href="#XMLID_31_"  style="overflow:visible;fill:#263238;"/>
			<clipPath id="XMLID_00000039133610722704552720000016593430645449008533_">
				<use xlink:href="#XMLID_31_"  style="overflow:visible;"/>
			</clipPath>
			<path style="opacity:0.8;clip-path:url(#XMLID_00000039133610722704552720000016593430645449008533_);fill:#FFFFFF;" d="
				M437.723,323.23H247.294c-5.387,0-9.755-4.367-9.755-9.755V123.047c0-5.388,4.367-9.755,9.755-9.755h190.429
				c5.387,0,9.755,4.367,9.755,9.755v190.429C447.478,318.863,443.111,323.23,437.723,323.23z"/>
			
				<use xlink:href="#XMLID_31_"  style="overflow:visible;fill:none;stroke:#263238;stroke-width:0.75;stroke-linecap:round;stroke-linejoin:round;stroke-miterlimit:10;"/>
		</g>
		<g>
			<defs>
				<path id="XMLID_30_" d="M432.475,317.982H252.542c-5.387,0-9.755-4.367-9.755-9.755V148.266c0-5.387,4.367-9.755,9.755-9.755
					h179.932c5.387,0,9.755,4.367,9.755,9.755v159.961C442.23,313.615,437.862,317.982,432.475,317.982z"/>
			</defs>
			<use xlink:href="#XMLID_30_"  style="overflow:visible;fill:#263238;"/>
			<clipPath id="XMLID_00000099621041554970452830000004865347301794621067_">
				<use xlink:href="#XMLID_30_"  style="overflow:visible;"/>
			</clipPath>
			
				<use xlink:href="#XMLID_30_"  style="overflow:visible;fill:none;stroke:#263238;stroke-width:0.75;stroke-linecap:round;stroke-linejoin:round;stroke-miterlimit:10;"/>
		</g>
		<g>
			<defs>
				<path id="XMLID_29_" d="M432.75,132.866h7.394c1.152,0,2.086-0.934,2.086-2.086v-7.394c0-1.152-0.934-2.086-2.086-2.086h-7.394
					c-1.152,0-2.086,0.934-2.086,2.086v7.394C430.663,131.932,431.598,132.866,432.75,132.866z"/>
			</defs>
			<use xlink:href="#XMLID_29_"  style="overflow:visible;fill:#92E3A9;"/>
			<clipPath id="XMLID_00000114042842810109298530000011309013672292902835_">
				<use xlink:href="#XMLID_29_"  style="overflow:visible;"/>
			</clipPath>
			<path style="opacity:0.3;clip-path:url(#XMLID_00000114042842810109298530000011309013672292902835_);" d="M432.75,132.866h7.394
				c1.152,0,2.086-0.934,2.086-2.086v-7.394c0-1.152-0.934-2.086-2.086-2.086h-7.394c-1.152,0-2.086,0.934-2.086,2.086v7.394
				C430.663,131.932,431.598,132.866,432.75,132.866z"/>
			
				<use xlink:href="#XMLID_29_"  style="overflow:visible;fill:none;stroke:#263238;stroke-width:0.75;stroke-linecap:round;stroke-linejoin:round;stroke-miterlimit:10;"/>
		</g>
		
			<path style="fill:#92E3A9;stroke:#263238;stroke-width:0.75;stroke-linecap:round;stroke-linejoin:round;stroke-miterlimit:10;" d="
			M418.502,132.866h7.394c1.152,0,2.086-0.934,2.086-2.086v-7.394c0-1.152-0.934-2.086-2.086-2.086h-7.394
			c-1.152,0-2.086,0.934-2.086,2.086v7.394C416.416,131.932,417.35,132.866,418.502,132.866z"/>
		<g>
			<defs>
				<path id="XMLID_28_" d="M404.255,132.866h7.394c1.152,0,2.086-0.934,2.086-2.086v-7.394c0-1.152-0.934-2.086-2.086-2.086h-7.394
					c-1.152,0-2.086,0.934-2.086,2.086v7.394C402.169,131.932,403.103,132.866,404.255,132.866z"/>
			</defs>
			<use xlink:href="#XMLID_28_"  style="overflow:visible;fill:#92E3A9;"/>
			<clipPath id="XMLID_00000068649476107694907480000010487917195619621270_">
				<use xlink:href="#XMLID_28_"  style="overflow:visible;"/>
			</clipPath>
			<path style="opacity:0.7;clip-path:url(#XMLID_00000068649476107694907480000010487917195619621270_);fill:#FFFFFF;" d="
				M404.255,132.866h7.394c1.152,0,2.086-0.934,2.086-2.086v-7.394c0-1.152-0.934-2.086-2.086-2.086h-7.394
				c-1.152,0-2.086,0.934-2.086,2.086v7.394C402.169,131.932,403.103,132.866,404.255,132.866z"/>
			
				<use xlink:href="#XMLID_28_"  style="overflow:visible;fill:none;stroke:#263238;stroke-width:0.75;stroke-linecap:round;stroke-linejoin:round;stroke-miterlimit:10;"/>
		</g>
		<g>
			<path style="fill:#263238;" d="M243.227,129.169v-4.896c0-1.491,0.785-2.343,2.222-2.343c1.437,0,2.222,0.851,2.222,2.343v4.896
				c0,1.491-0.785,2.343-2.222,2.343C244.012,131.511,243.227,130.66,243.227,129.169z M246.208,129.262v-5.083
				c0-0.665-0.293-0.919-0.759-0.919c-0.465,0-0.759,0.254-0.759,0.919v5.083c0,0.665,0.293,0.919,0.759,0.919
				C245.915,130.181,246.208,129.927,246.208,129.262z"/>
			<path style="fill:#263238;" d="M248.659,122.063h2.156c1.464,0,2.182,0.812,2.182,2.303v0.918c0,1.491-0.718,2.303-2.182,2.303
				h-0.692v3.792h-1.464V122.063z M250.815,126.255c0.466,0,0.719-0.214,0.719-0.879v-1.104c0-0.665-0.253-0.879-0.719-0.879h-0.692
				v2.861H250.815z"/>
			<path style="fill:#263238;" d="M253.798,122.063h3.992v1.331h-2.528v2.462h2.009v1.331h-2.009v2.862h2.528v1.331h-3.992V122.063z
				"/>
			<path style="fill:#263238;" d="M258.631,122.063h1.837l1.424,5.576h0.027v-5.576h1.304v9.315h-1.503l-1.757-6.8h-0.026v6.8
				h-1.304V122.063z"/>
			<path style="fill:#263238;" d="M266.194,129.169v-0.532h1.384v0.639c0,0.665,0.293,0.905,0.758,0.905
				c0.466,0,0.759-0.24,0.759-0.932c0-0.771-0.293-1.265-1.251-2.102c-1.225-1.078-1.624-1.837-1.624-2.902
				c0-1.464,0.759-2.315,2.183-2.315s2.129,0.851,2.129,2.343v0.386h-1.384v-0.479c0-0.665-0.266-0.919-0.732-0.919
				c-0.465,0-0.732,0.254-0.732,0.892c0,0.679,0.306,1.171,1.264,2.01c1.224,1.078,1.61,1.823,1.61,2.981
				c0,1.517-0.772,2.369-2.209,2.369C266.913,131.511,266.194,130.66,266.194,129.169z"/>
			<path style="fill:#263238;" d="M271.293,129.169v-4.896c0-1.491,0.785-2.343,2.222-2.343c1.437,0,2.222,0.851,2.222,2.343v4.896
				c0,1.491-0.785,2.343-2.222,2.343C272.078,131.511,271.293,130.66,271.293,129.169z M274.274,129.262v-5.083
				c0-0.665-0.293-0.919-0.758-0.919c-0.466,0-0.759,0.254-0.759,0.919v5.083c0,0.665,0.293,0.919,0.759,0.919
				C273.981,130.181,274.274,129.927,274.274,129.262z"/>
			<path style="fill:#263238;" d="M276.672,129.169v-7.106h1.464v7.213c0,0.665,0.28,0.905,0.745,0.905
				c0.466,0,0.745-0.24,0.745-0.905v-7.213h1.41v7.106c0,1.491-0.745,2.343-2.182,2.343
				C277.417,131.511,276.672,130.66,276.672,129.169z"/>
			<path style="fill:#263238;" d="M282.077,122.063h2.169c1.517,0,2.169,0.705,2.169,2.142v0.572c0,0.959-0.306,1.571-0.958,1.837
				v0.027c0.732,0.227,0.971,0.918,0.971,1.97v1.636c0,0.453,0.014,0.786,0.16,1.131h-1.49c-0.08-0.239-0.133-0.386-0.133-1.144
				v-1.703c0-0.865-0.253-1.144-0.918-1.144h-0.505v3.992h-1.464V122.063z M284.073,126.056c0.546,0,0.879-0.241,0.879-0.985v-0.718
				c0-0.666-0.227-0.959-0.746-0.959h-0.665v2.662H284.073z"/>
			<path style="fill:#263238;" d="M287.349,129.222v-5.003c0-1.438,0.745-2.289,2.156-2.289c1.411,0,2.156,0.851,2.156,2.289v0.985
				h-1.384v-1.078c0-0.612-0.293-0.866-0.732-0.866c-0.439,0-0.732,0.254-0.732,0.866v5.203c0,0.612,0.292,0.852,0.732,0.852
				c0.439,0,0.732-0.24,0.732-0.852v-1.424h1.384v1.316c0,1.438-0.745,2.289-2.156,2.289
				C288.095,131.511,287.349,130.66,287.349,129.222z"/>
			<path style="fill:#263238;" d="M292.542,122.063h3.992v1.331h-2.528v2.462h2.009v1.331h-2.009v2.862h2.528v1.331h-3.992V122.063z
				"/>
		</g>
	</g>
</g>
<g id="Character_4">
	<g>
		<g>
			<path style="fill:#858585;stroke:#263238;stroke-linecap:round;stroke-linejoin:round;stroke-miterlimit:10;" d="M503.26,383.263
				c0,0,1.668,10.991,1.274,14.645c-1.325,12.27-7.612,24.443-10.274,48.284h102.175c0,0,0.926-43.481-3.087-62.929H503.26z"/>
			<g>
				<defs>
					<path id="XMLID_2_" d="M502.667,389.514c0,0-2.514-42.764-7.455-83.92c-2.964-24.694-7.922-49.158-9.056-67.436
						c-1.484-23.913,27.711-17.267,53.13-18.331c25.419-1.064,50.115-4.361,51.879,17.867c1.764,22.228,4.188,150.411,4.188,150.411
						S547.193,401.017,502.667,389.514z"/>
				</defs>
				<use xlink:href="#XMLID_2_"  style="overflow:visible;fill:#92E3A9;"/>
				<clipPath id="XMLID_00000012466741075195454470000009489857595179203716_">
					<use xlink:href="#XMLID_2_"  style="overflow:visible;"/>
				</clipPath>
				<g style="opacity:0.2;clip-path:url(#XMLID_00000012466741075195454470000009489857595179203716_);">
					<path d="M494.882,252.186c-5.962,14.005-15.853,26.313-28.246,35.151l2.383,5.458c-2.756,2.325-7.817,0.192-8.078-3.405
						l-2.866,14.735l-9.159-0.287c4.48,4.547,12.354,3.861,17.634,0.273c5.28-3.588,8.617-9.323,11.909-14.792
						c3.292-5.469,6.947-11.089,12.539-14.167c6.723,31.565,13.446,63.13,20.17,94.695c1.085,5.095,2.242,10.356,5.302,14.572
						c6.346,8.746,18.62,10.334,29.425,10.235c16.008-0.146,31.996-2.331,47.457-6.484l-1.193-116.189l30.799,38.314
						c-5.014,6.928-10.027,13.856-15.041,20.784c6.327-9.542,17.335-15.812,28.769-16.388c-1.847-1.891-4.737-2.69-7.293-2.018
						l9.517-3.046l-7.438-0.646c1.384-2.242,2.768-4.484,4.151-6.726c-0.975,1.921-3.615,2.465-5.652,1.764
						c-2.037-0.701-3.607-2.313-5.094-3.871c-6.787-7.111-13.645-14.317-18.495-22.867c-4.85-8.55-7.561-18.722-5.394-28.31
						l-3.463,8.636l-5.291-14.764c1.063,4.665-0.585,9.85-4.147,13.045c-1.41,1.265-3.145,2.305-3.887,4.069
						c-0.33,0.784-0.348,1.672-0.191,2.509c13.282,71.03-29.901,71.413-45.041,67.508c-13.562-3.499-25.994-20.598-26.508-34.42
						c-0.065-1.74,1.836-2.868,3.361-2.026c25.51,14.09,47.394,17.688,39.799,11.859c-13.503-2.887-49.479-17.636-55.48-49.785
						C499.683,253.17,497.288,251.612,494.882,252.186L494.882,252.186z"/>
				</g>
				
					<use xlink:href="#XMLID_2_"  style="overflow:visible;fill:none;stroke:#263238;stroke-width:0.75;stroke-linecap:round;stroke-linejoin:round;stroke-miterlimit:10;"/>
			</g>
			<path style="fill:none;stroke:#263238;stroke-width:0.75;stroke-linecap:round;stroke-linejoin:round;stroke-miterlimit:10;" d="
				M544.217,446.192c0,0-2.096-5.118-3.313-6.735c-6.249-8.303-5.466-15.383-7.755-23.128c-0.701-2.372-5.488-8.232-5.488-8.232"/>
			
				<polygon style="fill:#FFFFFF;stroke:#263238;stroke-width:0.75;stroke-linecap:round;stroke-linejoin:round;stroke-miterlimit:10;" points="
				606.453,340.036 599.021,348.856 601.308,364.32 612.627,352.407 			"/>
			<g>
				
					<path style="fill:#FFFFFF;stroke:#1A2E35;stroke-width:0.75;stroke-linecap:round;stroke-linejoin:round;stroke-miterlimit:10;" d="
					M600.383,349.499c-0.312-1.503-0.48-5.327-1.931-5.828c-2.664-0.921-7.782,3.916-9.4,6.224c-0.76,1.084-2.397,3.405-2.384,4.729
					c0.007,0.677,0.598,2.286,1.267,2.393c1.163,0.185,2.487-2.513,3.386-3.273c1.125-0.952,5.352-3.057,5.352-3.057
					s-3.148,4.572-4.434,5.625c-1.913,1.568-9.877,6-4.819,8.641c0,0-1.951,2.865,1.104,3.622c3.056,0.757,7.916-3.466,7.916-3.466
					s-0.873,1.366-3.101,3.353c-1.935,1.726-4.799,1.349-4.121,2.568c1.052,1.891,3.649,2.065,6.422,1.135
					c2.773-0.93,4.644-2.01,6.623-5.292C604.764,362.724,601.272,353.776,600.383,349.499z"/>
				
					<path style="fill:none;stroke:#1A2E35;stroke-width:0.75;stroke-linecap:round;stroke-linejoin:round;stroke-miterlimit:10;" d="
					M589.507,364.32c0,0,4.145-2.092,6.287-3.689c2.142-1.597,3.228-3.797,3.228-3.797"/>
			</g>
			<g>
				<defs>
					<path id="XMLID_1_" d="M567.174,219.086c0,0,24.759,1.471,24.615,9.084c0,0,12.397,5.279,13.058,11.242
						c0.661,5.963,52.957,61.988,43.891,78.258c-7.915,14.204-39.862,40.616-39.862,40.616s-3.053-6.859-6.503-14.869
						c0,0,14.015-30.572,20.424-33.712l-33.642-42.728"/>
				</defs>
				<use xlink:href="#XMLID_1_"  style="overflow:visible;fill:#92E3A9;"/>
				<clipPath id="XMLID_00000178905258507642182030000002156910546755820177_">
					<use xlink:href="#XMLID_1_"  style="overflow:visible;"/>
				</clipPath>
				<g style="opacity:0.2;clip-path:url(#XMLID_00000178905258507642182030000002156910546755820177_);">
					<path d="M495.379,252.023c-5.962,14.005-15.853,26.313-28.246,35.151c0.794,1.819,1.589,3.639,2.383,5.458
						c-2.756,2.325-7.817,0.192-8.078-3.405c-0.956,4.912-1.911,9.823-2.866,14.735c-3.053-0.096-6.106-0.192-9.159-0.287
						c4.48,4.547,12.354,3.861,17.634,0.273c5.28-3.588,8.617-9.323,11.909-14.793c3.292-5.469,6.947-11.089,12.54-14.167
						c6.723,31.565,13.446,63.13,20.169,94.695c1.085,5.095,2.242,10.356,5.302,14.572c6.346,8.746,18.62,10.334,29.425,10.235
						c16.008-0.146,31.996-2.331,47.457-6.484c-0.398-38.73-0.795-77.459-1.193-116.189c10.266,12.771,20.533,25.543,30.799,38.314
						c-5.014,6.928-10.027,13.856-15.041,20.784c6.327-9.542,17.335-15.812,28.769-16.388c-1.847-1.891-4.737-2.69-7.293-2.018
						c3.172-1.015,6.345-2.031,9.517-3.046c-2.479-0.216-4.959-0.431-7.438-0.647c1.384-2.242,2.768-4.484,4.151-6.726
						c-0.975,1.921-3.615,2.465-5.652,1.764c-2.037-0.701-3.607-2.313-5.094-3.871c-6.787-7.111-13.645-14.317-18.495-22.867
						c-4.85-8.55-7.561-18.722-5.394-28.311c-1.154,2.879-2.308,5.758-3.463,8.636c-1.764-4.921-3.528-9.843-5.291-14.764
						c1.063,4.665-0.585,9.85-4.147,13.045c-1.355,1.216-3.009,2.223-3.795,3.865c-1.059,2.213-0.214,4.812,0.49,7.162
						c4.391,14.659,2.313,31.479-6.88,43.712c-9.193,12.234-25.736,18.981-40.554,15.158c-14.817-3.823-26.349-18.87-24.762-34.09
						c15.812,5.784,32.482,9.218,49.293,10.155c-14.12-3.019-28.33-7.101-40.232-15.275c-11.902-8.175-21.291-21.077-22.138-35.492
						L495.379,252.023z"/>
				</g>
				
					<use xlink:href="#XMLID_1_"  style="overflow:visible;fill:none;stroke:#263238;stroke-width:0.75;stroke-linecap:round;stroke-linejoin:round;stroke-miterlimit:10;"/>
			</g>
			<path style="fill:none;stroke:#263238;stroke-width:0.75;stroke-linecap:round;stroke-linejoin:round;stroke-miterlimit:10;" d="
				M639.773,308.53c-5.515-3.88-13.328,0.196-13.328-2.352c0-2.548,9.408-2.78,8.624-5.408"/>
			<g>
				
					<path style="fill:none;stroke:#263238;stroke-width:0.75;stroke-linecap:round;stroke-linejoin:round;stroke-miterlimit:10;" d="
					M596.587,255.706c1.382-3.752,2.577-8.779,2.614-14.992"/>
				
					<path style="fill:none;stroke:#263238;stroke-width:0.75;stroke-linecap:round;stroke-linejoin:round;stroke-miterlimit:10;" d="
					M592.566,237.437c0.293,5.813,0.586,14.072,0.319,20.375c-0.063,1.482,1.953,1.969,2.575,0.621"/>
				
					<path style="fill:none;stroke:#263238;stroke-width:0.75;stroke-linecap:round;stroke-linejoin:round;stroke-miterlimit:10;" d="
					M592.145,230.326c0,0,0.09,1.244,0.211,3.274"/>
			</g>
			<path style="fill:none;stroke:#263238;stroke-width:0.75;stroke-linecap:round;stroke-linejoin:round;stroke-miterlimit:10;" d="
				M479.147,246.986c0,0-1.474,10.294,0,17.642"/>
			<g>
				
					<path style="fill:#FFFFFF;stroke:#263238;stroke-width:0.75;stroke-linecap:round;stroke-linejoin:round;stroke-miterlimit:10;" d="
					M435.891,236.702l-5.673-16.317c0,0-1.764-11.172-3.234-13.377c-1.47-2.205-5.292-5.292-5.292-5.292s-2.752-3.822-4.684-5.439
					c-1.931-1.617-13.25-7.497-14.132-7.056c-0.882,0.441-2.279,3.087,5.072,7.203c0,0-4.043-0.294-7.277,1.029
					c-3.234,1.323-5.439,1.691-4.042,3.087c1.396,1.397,2.573,2.058,7.791,0.662c0,0,3.675,0.441,6.615,0.221l1.617,1.911
					c0,0-2.499-1.102-3.969,1.25c-1.47,2.352-3.161,5.292-2.426,6.982c0,0-5.66-2.94-7.203-0.514c-1.543,2.425,3.234,4.63,5.145,6.1
					c1.911,1.47,6.542,5.439,6.542,5.439s3.307,7.423,10.216,10.143c0,0,2.677,3.087,1.911,5.953L435.891,236.702z"/>
				
					<polyline style="fill:none;stroke:#263238;stroke-width:0.75;stroke-linecap:round;stroke-linejoin:round;stroke-miterlimit:10;" points="
					411.549,198.408 413.975,200.393 416.694,205.097 418.532,211.271 				"/>
				
					<path style="fill:none;stroke:#263238;stroke-width:0.75;stroke-linecap:round;stroke-linejoin:round;stroke-miterlimit:10;" d="
					M420.075,211.271c0,0-3.855,4.63-6.595,5.292c0,0-2.887-1.25-3.475-1.764c-0.487-0.426-1.226-1.255-2.718-2.446"/>
				
					<path style="fill:none;stroke:#263238;stroke-width:0.75;stroke-linecap:round;stroke-linejoin:round;stroke-miterlimit:10;" d="
					M415.813,210.903l-0.354-1.25c0,0-1.925,0.441-3.468,0l-0.882,1.25C411.108,210.903,413.093,210.536,415.813,210.903z"/>
				
					<path style="fill:none;stroke:#263238;stroke-width:0.75;stroke-linecap:round;stroke-linejoin:round;stroke-miterlimit:10;" d="
					M411.917,205.685c0,0,0.655,1.23,0.515,3.161"/>
				
					<path style="fill:none;stroke:#263238;stroke-width:0.75;stroke-linecap:round;stroke-linejoin:round;stroke-miterlimit:10;" d="
					M409.638,209.654c0,0,2.96,2.283,2.546,6.323"/>
				
					<polyline style="fill:none;stroke:#263238;stroke-width:0.75;stroke-linecap:round;stroke-linejoin:round;stroke-miterlimit:10;" points="
					414.195,204.509 415.813,206.273 415.813,208.257 				"/>
			</g>
			<g>
				<defs>
					<path id="XMLID_3_" d="M496.878,221.698c0,0-9.374-0.395-15.348,16.46c0,0-7.063,4.124-21.43,35.484
						c0,0-2.473-3.31-7.783-12.38c-4.636-7.917-11.713-18.151-17.559-33.119c0,0-4.704,5.791-14.78,5.457
						c0,0,21.836,73.754,37.124,73.754c16.856,0,35.421-39.2,35.421-39.2"/>
				</defs>
				<use xlink:href="#XMLID_3_"  style="overflow:visible;fill:#92E3A9;"/>
				<clipPath id="XMLID_00000176026367776487989640000010796052767786832769_">
					<use xlink:href="#XMLID_3_"  style="overflow:visible;"/>
				</clipPath>
				<g style="opacity:0.2;clip-path:url(#XMLID_00000176026367776487989640000010796052767786832769_);">
					<path d="M495.379,252.023c-5.962,14.005-15.853,26.313-28.246,35.151c0.794,1.819,1.589,3.639,2.383,5.458
						c-2.756,2.325-7.817,0.192-8.078-3.405c-0.956,4.912-1.911,9.823-2.866,14.735c-3.053-0.096-6.106-0.192-9.159-0.287
						c4.48,4.547,12.354,3.861,17.634,0.273c5.28-3.588,8.617-9.323,11.909-14.793c3.292-5.469,6.947-11.089,12.54-14.167
						c6.723,31.565,13.446,63.13,20.169,94.695c1.085,5.095,2.242,10.356,5.302,14.572c6.346,8.746,18.62,10.334,29.425,10.235
						c16.008-0.146,31.996-2.331,47.457-6.484c-0.398-38.73-0.795-77.459-1.193-116.189c10.266,12.771,20.533,25.543,30.799,38.314
						c-5.014,6.928-10.027,13.856-15.041,20.784c6.327-9.542,17.335-15.812,28.769-16.388c-1.847-1.891-4.737-2.69-7.293-2.018
						c3.172-1.015,6.345-2.031,9.517-3.046c-2.479-0.216-4.959-0.431-7.438-0.647c1.384-2.242,2.768-4.484,4.151-6.726
						c-0.975,1.921-3.615,2.465-5.652,1.764c-2.037-0.701-3.607-2.313-5.094-3.871c-6.787-7.111-13.645-14.317-18.495-22.867
						c-4.85-8.55-7.561-18.722-5.394-28.311c-1.154,2.879-2.308,5.758-3.463,8.636c-1.764-4.921-3.528-9.843-5.291-14.764
						c1.063,4.665-0.585,9.85-4.147,13.045c-1.355,1.216-3.009,2.223-3.795,3.865c-1.059,2.213-0.214,4.812,0.49,7.162
						c4.391,14.659,2.313,31.479-6.88,43.712c-9.193,12.234-25.736,18.981-40.554,15.158c-14.817-3.823-26.349-18.87-24.762-34.09
						c15.812,5.784,32.482,9.218,49.293,10.155c-14.12-3.019-28.33-7.101-40.232-15.275c-11.902-8.175-21.291-21.077-22.138-35.492
						L495.379,252.023z"/>
				</g>
			</g>
			<path style="fill:none;stroke:#263238;stroke-width:0.75;stroke-linecap:round;stroke-linejoin:round;stroke-miterlimit:10;" d="
				M496.878,221.698c0,0-9.374-0.395-15.348,16.46c0,0-7.063,4.124-21.43,35.484c0,0-2.473-3.31-7.783-12.38
				c-4.636-7.917-11.713-18.151-17.559-33.119c0,0-4.704,5.791-14.78,5.457c0,0,21.836,73.754,37.124,73.754
				c16.856,0,35.421-39.2,35.421-39.2"/>
			<g>
				
					<path style="fill:none;stroke:#263238;stroke-width:0.75;stroke-linecap:round;stroke-linejoin:round;stroke-miterlimit:10;" d="
					M486.397,241.869c-0.097-1.188-0.179-2.425-0.241-3.711"/>
				
					<path style="fill:none;stroke:#263238;stroke-width:0.75;stroke-linecap:round;stroke-linejoin:round;stroke-miterlimit:10;" d="
					M488.031,264.211c2.734-0.299,0.347-5.911-1.096-17.219"/>
				
					<path style="fill:none;stroke:#263238;stroke-width:0.75;stroke-linecap:round;stroke-linejoin:round;stroke-miterlimit:10;" d="
					M481.014,243.262c0,0,2.278,13.322,4.898,18.721"/>
			</g>
			<g>
				<defs>
					<path id="XMLID_90_" d="M543.913,192.835c0,0,2.565,25.472,8.249,28.542c0,0-0.907,9.734-17.505,9.734
						c-16.598,0-16.598-13.72-16.598-13.72L543.913,192.835z"/>
				</defs>
				<use xlink:href="#XMLID_90_"  style="overflow:visible;fill:#FFFFFF;"/>
				<clipPath id="XMLID_00000085960920787585940110000012714499216474736020_">
					<use xlink:href="#XMLID_90_"  style="overflow:visible;"/>
				</clipPath>
				
					<path style="clip-path:url(#XMLID_00000085960920787585940110000012714499216474736020_);fill:#263238;stroke:#263238;stroke-width:0.75;stroke-linecap:round;stroke-linejoin:round;stroke-miterlimit:10;" d="
					M508.051,165.277c0,0-2.694,16.042-2.251,19.37c0.443,3.327-0.382,6.823,0.299,12.258c0.681,5.434,4.821,20.572,14.7,22.886
					c5.15,1.206,16.319-3.813,20.945-14.106c0.314-0.698,2.168-8.609,2.168-8.609s4.579,3.096,6.051-1.912
					c1.471-5.008,3.946-9.587,0.769-12.578c-3.318-3.123-7.477,3.49-8.074,5.887c-0.597,2.396-2.945-0.321-2.945-0.321
					s-1.469-11.033-4.913-13.96c-3.444-2.928,2.979-8.595-0.281-12.438C531.259,157.91,516.75,158.773,508.051,165.277z"/>
				
					<use xlink:href="#XMLID_90_"  style="overflow:visible;fill:none;stroke:#263238;stroke-width:0.75;stroke-linecap:round;stroke-linejoin:round;stroke-miterlimit:10;"/>
			</g>
			<g>
				<defs>
					<path id="XMLID_89_" d="M504.21,165.543c0,0-15.105-1.457-11.792-13.647c3.312-12.19,15.929-13.515,15.929-13.515
						s-2.547,8.745,12.425,7.022c14.972-1.723,31.137-3.18,31.8,11.922c0,0,5.83,14.445-3.975,28.49
						c-9.805,14.045-18.815,2.672-18.815,2.672l-7.817-16.717l-14.408-3.048L504.21,165.543z"/>
				</defs>
				<use xlink:href="#XMLID_89_"  style="overflow:visible;fill:#263238;"/>
				<clipPath id="XMLID_00000122690494338428022710000013318268780935964833_">
					<use xlink:href="#XMLID_89_"  style="overflow:visible;"/>
				</clipPath>
				
					<path style="clip-path:url(#XMLID_00000122690494338428022710000013318268780935964833_);fill:#858585;stroke:#263238;stroke-width:0.75;stroke-miterlimit:10;" d="
					M525.949,157.372c0,0,17.877,2.071,26.622-0.046c8.745-2.117,11.13,21.601,11.13,21.601l-2.12,14.441l-23.85,4.107
					l-10.997-9.805l-4.505-13.647L525.949,157.372z"/>
				<use xlink:href="#XMLID_89_"  style="overflow:visible;fill:none;stroke:#263238;stroke-width:0.75;stroke-miterlimit:10;"/>
			</g>
			
				<path style="fill:#FFFFFF;stroke:#263238;stroke-width:0.75;stroke-linecap:round;stroke-linejoin:round;stroke-miterlimit:10;" d="
				M502.037,163.569c0,0-3.487,16.148-3.044,19.475c0.443,3.327-0.594,6.852,0.081,12.287c0.674,5.435,3.025,25.796,14.762,24.234
				c11.561-1.539,27.464-11,28.877-20.391c0.115-0.765,0.804-2.986,0.804-2.986s4.833,1.495,6.655-3.559
				c1.822-5.055,4.803-9.701,1.17-12.631c-3.794-3.059-8.78,3.664-9.528,6.081c-0.748,2.416-3.421-0.258-3.421-0.258
				s-1.469-11.033-5.414-13.894c-3.945-2.861,3.656-8.685-0.056-12.468C529.212,155.674,512.305,156.856,502.037,163.569z"/>
			
				<path style="fill:#FFFFFF;stroke:#263238;stroke-width:0.75;stroke-linecap:round;stroke-linejoin:round;stroke-miterlimit:10;" d="
				M508.069,182.802c0,2.971-5.603,8.157-4.94,10.807c0.364,1.455,4.135,2.163,4.914,3.445c0.298,0.491,0.303,1.217,0.303,1.217"/>
			<path style="fill:#263238;" d="M502.721,184.559c-0.082,1.156-0.614,2.06-1.187,2.02c-0.573-0.041-0.972-1.011-0.89-2.167
				c0.082-1.156,0.613-2.06,1.187-2.02C502.405,182.433,502.803,183.403,502.721,184.559z"/>
			<path style="fill:#263238;" d="M515.765,182.658c-0.086,1.209-0.641,2.154-1.241,2.112c-0.6-0.043-1.016-1.057-0.93-2.266
				c0.086-1.209,0.641-2.154,1.241-2.112C515.435,180.435,515.851,181.449,515.765,182.658z"/>
			<path style="fill:none;stroke:#263238;stroke-width:0.75;stroke-linecap:round;stroke-linejoin:round;stroke-miterlimit:10;" d="
				M509.861,177.308c0,0,4.988-4.031,11.618,0.255"/>
			
				<path style="fill:#FFFFFF;stroke:#263238;stroke-width:0.75;stroke-linecap:round;stroke-linejoin:round;stroke-miterlimit:10;" d="
				M524.069,200.777c0,0-11.015,9.759-15.733,1.265"/>
			<path style="fill:none;stroke:#263238;stroke-width:0.75;stroke-linecap:round;stroke-linejoin:round;stroke-miterlimit:10;" d="
				M496.505,180.138c0,0,3.316-4.541,8.931-1.189"/>
			<path style="fill:#263238;" d="M505.711,161.363c0,0-16.304,1.061-8.135,11.236C497.576,172.599,497.398,165.266,505.711,161.363
				z"/>
			<path style="fill:none;stroke:#263238;stroke-width:0.75;stroke-linecap:round;stroke-linejoin:round;stroke-miterlimit:10;" d="
				M505.711,184.485c0,2.781-1.977,5.035-4.417,5.035c-2.439,0-4.417-2.254-4.417-5.035c0-2.781,1.977-3.975,4.417-3.975
				C503.734,180.51,505.711,181.705,505.711,184.485z"/>
			<path style="fill:none;stroke:#263238;stroke-width:0.75;stroke-linecap:round;stroke-linejoin:round;stroke-miterlimit:10;" d="
				M521.216,182.581c0,2.781-2.472,5.035-5.522,5.035c-3.05,0-5.522-2.254-5.522-5.035s2.472-3.975,5.522-3.975
				C518.744,178.606,521.216,179.8,521.216,182.581z"/>
			<path style="fill:none;stroke:#263238;stroke-width:0.75;stroke-linecap:round;stroke-linejoin:round;stroke-miterlimit:10;" d="
				M505.383,182.581c0-1.207,4.789-1.833,4.789-0.625"/>
			
				<line style="fill:none;stroke:#263238;stroke-width:0.75;stroke-linecap:round;stroke-linejoin:round;stroke-miterlimit:10;" x1="520.868" y1="180.619" x2="543.913" y2="182.581"/>
			<g>
				
					<path style="fill:none;stroke:#263238;stroke-width:0.75;stroke-linecap:round;stroke-linejoin:round;stroke-miterlimit:10;" d="
					M507.68,315.548c9.633,17.07,34.051,52.92,70.131,54.968"/>
				
					<path style="fill:none;stroke:#263238;stroke-width:0.75;stroke-linecap:round;stroke-linejoin:round;stroke-miterlimit:10;" d="
					M503.075,306.65c0,0,0.702,1.574,2.076,4.228"/>
			</g>
			<path style="fill:#92E3A9;stroke:#263238;stroke-miterlimit:10;" d="M556.116,219.086c-1.595,0.044-3.213,0.104-4.852,0.175
				c-0.888,7.425-9.565,9.581-17.582,9.581c-7.823,0-12.257-2.055-12.882-9.052c-1.639-0.028-3.258-0.049-4.849-0.054
				c0.636,9.914,7.168,13.816,17.731,13.816C544.469,233.552,555.456,229.475,556.116,219.086z"/>
			<path style="fill:none;stroke:#263238;stroke-width:0.75;stroke-linecap:round;stroke-linejoin:round;stroke-miterlimit:10;" d="
				M459.314,292.556c0,0-0.449-12.348,1.315-12.936c1.764-0.588,1.764,6.762,6.468,6.468"/>
		</g>
		
			<path style="fill:#FFFFFF;stroke:#263238;stroke-width:0.75;stroke-linecap:round;stroke-linejoin:round;stroke-miterlimit:10;" d="
			M401.655,209.922L284.194,205.9c-2.438-0.084-4.347-2.128-4.263-4.566l0.319-9.305c0.083-2.438,2.128-4.347,4.566-4.264
			l117.462,4.022c2.438,0.084,4.347,2.128,4.263,4.566l-0.319,9.305C406.138,208.097,404.094,210.006,401.655,209.922z"/>
		<g>
			<path style="fill:#263238;" d="M335.852,199.819v-0.986l4.072-1.756v1.064l-2.808,1.185l2.808,1.185v1.064L335.852,199.819z"/>
			<path style="fill:#263238;" d="M344.436,194.668h1.265l-3.673,9.315h-1.265L344.436,194.668z"/>
			<path style="fill:#263238;" d="M346.542,200.511l2.808-1.185l-2.808-1.185v-1.064l4.072,1.756v0.986l-4.072,1.756V200.511z"/>
		</g>
	</g>
	
		<line style="fill:none;stroke:#263238;stroke-width:0.75;stroke-linecap:round;stroke-linejoin:round;stroke-miterlimit:10;" x1="273.943" y1="193.98" x2="271.077" y2="193.98"/>
</g>
<g id="Character_3">
	<g>
		<g>
			
				<path style="fill:#FFFFFF;stroke:#263238;stroke-width:0.75;stroke-linecap:round;stroke-linejoin:round;stroke-miterlimit:10;" d="
				M425.015,288.642l-3.351-14.49l-6.588-24.693l-6.944-7.442l-9.19-6.946c0,0-10.164-4.292-10.504-2.08
				c-0.34,2.212,1.531,2.892,1.531,2.892s-2.892-1.021-3.573,0.766s3.998,3.062,6.635,5.359c2.637,2.297,4.256,4.274,4.256,4.274
				s-3.687,4.595-3.206,7.093l0.311,1.138c0,0-7.364-4.003-8.063-0.768c-0.699,3.235,4.345,3.894,7.225,7.01
				c2.88,3.115,5.566,5.104,5.566,5.104s2.848,7.198,9.012,9.75l0.38,15.822C408.512,291.43,417.955,293.341,425.015,288.642z"/>
			
				<path style="fill:#FFFFFF;stroke:#263238;stroke-width:0.75;stroke-linecap:round;stroke-linejoin:round;stroke-miterlimit:10;" d="
				M390.734,236.734c0,0,4.63,3.147,6.908,4.083c0,0,4.305,4.525,5.849,6.131c1.544,1.606,3.659,5.799,3.659,5.799"/>
			<path style="fill:none;stroke:#263238;stroke-width:0.75;stroke-linecap:round;stroke-linejoin:round;stroke-miterlimit:10;" d="
				M398.305,247.28c0,0,2.039,3.433,3.402,5.034c1.362,1.602,1.215,2.538,0.268,3.643"/>
			<path style="fill:none;stroke:#263238;stroke-width:0.75;stroke-linecap:round;stroke-linejoin:round;stroke-miterlimit:10;" d="
				M396.099,255.512c0,0,1.27,0.886,2.206,1.984c0.936,1.098,3.34,1.87,4.73,0.889c1.39-0.981,5.137-3.645,4.627-4.642"/>
			<path style="fill:none;stroke:#263238;stroke-width:0.75;stroke-linecap:round;stroke-linejoin:round;stroke-miterlimit:10;" d="
				M398.943,250.722c0,0-0.005,1.498-0.965,2.025c-0.96,0.527,1.431-0.579,2.398,0.34"/>
		</g>
		<g>
			<g>
				<defs>
					<path id="XMLID_18_" d="M488.954,331.38c0,0-8.337-5.294-20.225-0.993c0,0-12.465,0.422-30.761,3.471
						c0,0,1.35-3.568-3.48-2.756c0,0-1.796-37.207-7.931-49.763c0,0-0.728,3.59-22.113,4.476c0,0-1.52,66.534,6.299,76.288
						c7.82,9.754,73.386,2.183,73.386,2.183S495.824,342.773,488.954,331.38z"/>
				</defs>
				<use xlink:href="#XMLID_18_"  style="overflow:visible;fill:#263238;"/>
				<clipPath id="XMLID_00000069381997975564625870000005390709837355698839_">
					<use xlink:href="#XMLID_18_"  style="overflow:visible;"/>
				</clipPath>
				<path style="opacity:0.2;clip-path:url(#XMLID_00000069381997975564625870000005390709837355698839_);" d="M404.325,348.835
					c0,0,9.659,14.982,26.344,13.269c16.685-1.713,54.643-17.373,56.005-3.256c1.362,14.117-16.76,11.455-16.76,11.455
					l-44.323,6.832c0,0-4.647,8.034-18.81-4.17c-14.163-12.205-14.163-12.205-14.163-12.205L404.325,348.835z"/>
				
					<use xlink:href="#XMLID_18_"  style="overflow:visible;fill:none;stroke:#263238;stroke-width:0.75;stroke-linecap:round;stroke-linejoin:round;stroke-miterlimit:10;"/>
			</g>
			<path style="fill:none;stroke:#7F7F7F;stroke-width:0.75;stroke-linecap:round;stroke-linejoin:round;" d="M419.673,344.674
				c0,0,13.037-13.865,15.256-10.816c2.219,3.049-3.529,3.327-6.896,16.641"/>
			<g>
				<defs>
					<path id="XMLID_17_" d="M483.747,446.196c0,0,1.942-37.724,0-66.571c-1.942-28.848-16.92-39.111,0-47.709
						c16.92-8.599,72.674-6.38,90.149,2.219c17.475,8.599,6.38,48.264,7.212,65.739c0.832,17.475,3.883,46.323,3.883,46.323H483.747
						z"/>
				</defs>
				<use xlink:href="#XMLID_17_"  style="overflow:visible;fill:#263238;"/>
				<clipPath id="XMLID_00000056418798276854531950000017303670811834563003_">
					<use xlink:href="#XMLID_17_"  style="overflow:visible;"/>
				</clipPath>
				<path style="opacity:0.2;clip-path:url(#XMLID_00000056418798276854531950000017303670811834563003_);" d="M526.372,388.408
					c0,0-11.592-8.042-17.937,1.942c-6.345,9.984,28.05,59.777,33.968,60.03c5.917,0.253,34.268,0,34.268,0l15.269-33.656
					c0,0-6.636-70.753-19.21-72.049c-12.575-1.296-21.083,25.807-22.931,41.658c-1.848,15.851-0.127,22.241-0.127,22.241
					L526.372,388.408z"/>
				
					<use xlink:href="#XMLID_17_"  style="overflow:visible;fill:none;stroke:#263238;stroke-width:0.75;stroke-linecap:round;stroke-linejoin:round;stroke-miterlimit:10;"/>
			</g>
			<path style="fill:#858585;" d="M518.143,410.515c0,1.072-0.869,1.942-1.942,1.942c-1.072,0-1.942-0.869-1.942-1.942
				s0.869-1.942,1.942-1.942C517.273,408.573,518.143,409.442,518.143,410.515z"/>
			<path style="fill:#858585;" d="M518.143,432.622c0,1.072-0.869,1.942-1.942,1.942c-1.072,0-1.942-0.869-1.942-1.942
				c0-1.072,0.869-1.942,1.942-1.942C517.273,430.68,518.143,431.549,518.143,432.622z"/>
			<path style="fill:#858585;stroke:#263238;stroke-linecap:round;stroke-linejoin:round;stroke-miterlimit:10;" d="
				M519.345,362.104c3.354,0,5.735,6.84,8.913,6.795c3.178-0.045,11.244-22.159,14.757-28.37c3.513-6.21,1.922-13.861-3.357-15.27
				c-5.279-1.409-36.234,0-36.234,0s-3.865,5.546-0.907,12.203c2.959,6.657,4.068,28.478,8.321,29.217
				C515.092,367.419,515.092,362.104,519.345,362.104z"/>
			<path style="fill:#858585;" d="M411.946,296.553c-0.367,1.008-1.481,1.527-2.489,1.16c-1.007-0.367-1.527-1.482-1.159-2.489
				c0.367-1.008,1.482-1.527,2.489-1.16C411.794,294.431,412.313,295.546,411.946,296.553z"/>
			<path style="fill:#858585;" d="M411.946,305.218c-0.367,1.008-1.481,1.527-2.489,1.159c-1.007-0.367-1.527-1.482-1.159-2.489
				c0.367-1.007,1.482-1.527,2.489-1.159C411.794,303.096,412.313,304.21,411.946,305.218z"/>
			<g>
				<defs>
					<path id="XMLID_16_" d="M502.517,332.1c0,0,12.759,28.776,17.937,27.923c5.178-0.853,8.876-12.667,14.054-18.538
						c5.178-5.871,5.69-11.065,5.341-14.293l-1.458-14.693l-11.65-1.294l-16.643,12.205L502.517,332.1z"/>
				</defs>
				<use xlink:href="#XMLID_16_"  style="overflow:visible;fill:#FFFFFF;"/>
				<clipPath id="XMLID_00000009564180464461485310000010116479622520753833_">
					<use xlink:href="#XMLID_16_"  style="overflow:visible;"/>
				</clipPath>
				
					<path style="clip-path:url(#XMLID_00000009564180464461485310000010116479622520753833_);fill:#263238;stroke:#263238;stroke-width:0.75;stroke-linecap:round;stroke-linejoin:round;stroke-miterlimit:10;" d="
					M489.461,285.121c0,0-1.277,16.902-0.36,20.221c0.917,3.32,0.358,7.047,1.806,12.477c1.448,5.429,6.695,25.794,18.405,22.559
					c11.534-3.187,28.403-16.31,27.417-26.005l-0.531-1.922c0,0,5.122,0.842,6.265-4.552c1.143-5.393,3.52-10.535-0.584-13.003
					c-4.285-2.577-8.41,4.956-8.83,7.517c-0.421,2.561-3.513,0.218-3.513,0.218s-3.041-11.007-7.453-13.361
					c-4.411-2.354,2.497-9.34-1.807-12.665C515.974,273.282,498.955,276.856,489.461,285.121z"/>
				
					<use xlink:href="#XMLID_16_"  style="overflow:visible;fill:none;stroke:#263238;stroke-width:0.75;stroke-linecap:round;stroke-linejoin:round;stroke-miterlimit:10;"/>
			</g>
			
				<path style="fill:#FFFFFF;stroke:#263238;stroke-width:0.75;stroke-linecap:round;stroke-linejoin:round;stroke-miterlimit:10;" d="
				M496.715,275.329c0,0-5.848,16.273-5.848,19.786s-1.563,7.027-1.613,12.759c-0.051,5.733-0.425,27.183,11.969,27.183
				c12.208,0,32.361-8.321,34.025-18.122v-2.034c0,0,4.808,2.219,7.397-2.774c2.589-4.993,6.324-9.402,2.959-12.944
				c-3.513-3.698-9.616,2.589-10.725,4.993c-1.109,2.404-3.514-0.74-3.514-0.74s0-11.65-3.698-15.164
				c-3.698-3.513,4.993-8.506,1.664-12.944C526.002,270.891,508.296,269.781,496.715,275.329z"/>
			
				<path style="fill:#263238;stroke:#263238;stroke-width:0.75;stroke-linecap:round;stroke-linejoin:round;stroke-miterlimit:10;" d="
				M542.83,303.316c0,0,7.027-9.864,2.219-21.514c0,0-3.883-19.602-27.738-21.636c0,0,6.102-4.623,2.219-6.472
				c-5.882-2.801-16.218,6.657-16.218,6.657s4.846-7.329,2.488-7.455c-2.358-0.126-18.954,18.556-9.084,25.21
				c9.87,6.655,24.511,0.922,24.511,0.922l7.18,24.288l1.109,3.08l10.42,0.74L542.83,303.316z"/>
			<path style="fill:none;stroke:#7F7F7F;stroke-width:0.75;stroke-linecap:round;stroke-linejoin:round;" d="M529.367,268.119
				c6.672,3.874,10.952,10.922,9.21,26.442"/>
			<path style="fill:none;stroke:#7F7F7F;stroke-width:0.75;stroke-linecap:round;stroke-linejoin:round;" d="M509.745,266.708
				c4.341-0.428,10.76-2.547,16.627-0.07"/>
			<path style="fill:none;stroke:#7F7F7F;stroke-width:0.75;stroke-linecap:round;stroke-linejoin:round;" d="M515.831,256.467
				c0,0-13.291,6.472-10.252,9.431"/>
			<path style="fill:none;stroke:#7F7F7F;stroke-width:0.75;stroke-linecap:round;stroke-linejoin:round;" d="M497.801,268.487
				c3.051,2.404,6.75-0.185,13.222,0"/>
			<path style="fill:none;stroke:#7F7F7F;stroke-width:0.75;stroke-linecap:round;stroke-linejoin:round;" d="M501.592,258.501
				c0,0-3.275,3.629-4.283,6.661"/>
			
				<path style="fill:#FFFFFF;stroke:#263238;stroke-width:0.75;stroke-linecap:round;stroke-linejoin:round;stroke-miterlimit:10;" d="
				M496.715,275.329c0,0-5.848,16.273-5.848,19.786s-1.563,7.027-1.613,12.759c-0.051,5.733-0.425,27.183,11.969,27.183
				c12.208,0,32.361-8.321,34.025-18.122v-2.034c0,0,4.808,2.219,7.397-2.774c2.589-4.993,6.324-9.402,2.959-12.944
				c-3.513-3.698-9.616,2.589-10.725,4.993c-1.109,2.404-3.514-0.74-3.514-0.74s0-11.65-3.698-15.164
				c-3.698-3.513,4.993-8.506,1.664-12.944C526.002,270.891,508.296,269.781,496.715,275.329z"/>
			
				<path style="fill:#FFFFFF;stroke:#263238;stroke-width:0.75;stroke-linecap:round;stroke-linejoin:round;stroke-miterlimit:10;" d="
				M502.517,296.41c0,0-6.794,6.59-6.472,9.431c0.177,1.56,3.992,2.815,4.623,4.253c0.242,0.55,0,2.404,0,2.404"/>
			<path style="fill:#263238;" d="M497.496,296.932c-0.433,1.309-1.491,2.136-2.361,1.848c-0.87-0.288-1.225-1.583-0.791-2.892
				c0.434-1.309,1.491-2.136,2.361-1.848C497.576,294.328,497.93,295.623,497.496,296.932z"/>
			<path style="fill:#263238;" d="M514.264,296.932c-0.433,1.309-1.49,2.136-2.361,1.848c-0.87-0.288-1.225-1.583-0.791-2.892
				c0.434-1.309,1.491-2.136,2.361-1.848C514.343,294.328,514.697,295.623,514.264,296.932z"/>
			
				<path style="fill:#FFFFFF;stroke:#263238;stroke-width:0.75;stroke-linecap:round;stroke-linejoin:round;stroke-miterlimit:10;" d="
				M508.434,291.397c0,0,5.733-3.493,12.02,1.87"/>
			
				<path style="fill:#FFFFFF;stroke:#263238;stroke-width:0.75;stroke-linecap:round;stroke-linejoin:round;stroke-miterlimit:10;" d="
				M496.715,313.978c0,0,8.946,3.144,17.729,0.925C514.444,314.902,500.714,324.148,496.715,313.978z"/>
			
				<path style="fill:#FFFFFF;stroke:#263238;stroke-width:0.75;stroke-linecap:round;stroke-linejoin:round;stroke-miterlimit:10;" d="
				M493.086,292.342c0,0,4.068-4.253,9.431,0"/>
			<g>
				
					<path style="fill:#FFFFFF;stroke:#263238;stroke-width:0.75;stroke-linecap:round;stroke-linejoin:round;stroke-miterlimit:10;" d="
					M528.295,336.646c-1.721,5.105-4.317,11.968-7.069,16.215"/>
				
					<path style="fill:#FFFFFF;stroke:#263238;stroke-width:0.75;stroke-linecap:round;stroke-linejoin:round;stroke-miterlimit:10;" d="
					M530.384,329.973c0,0-0.391,1.39-1.067,3.537"/>
			</g>
			<g>
				<g>
					
						<path style="fill:#FFFFFF;stroke:#263238;stroke-width:0.75;stroke-linecap:round;stroke-linejoin:round;stroke-miterlimit:10;" d="
						M525.236,373.629l-5.784-6.975c0,0-6.975-10.208-9.697-18.204c-2.722-7.996-3.062-12.249-7.315-12.249
						s-19.224-1.021-18.714,4.083c0,0-1.216,3.062-0.013,5.784c0,0,0.353,3.573,2.395,6.465c2.042,2.892,3.232,2.34,3.232,2.34
						s1.361,2.253,2.722,2.253c0,0,1.191,6.125,10.378,11.398l6.465,6.975l6.805,12.589l12.708-10.123L525.236,373.629z"/>
					
						<path style="fill:#FFFFFF;stroke:#263238;stroke-width:0.75;stroke-linecap:round;stroke-linejoin:round;stroke-miterlimit:10;" d="
						M504.141,343.134c0,0-2.552,1.148-4.721,1.659c-2.169,0.51-9.57,1.659-10.08,3.828c-0.51,2.169,2.424,7.656,3.956,7.911
						c1.531,0.255,7.018,0,7.273-1.148c0,0,0.255,1.531,0,3.062c-0.255,1.531-1.404,3.955,0.51,7.911"/>
					
						<path style="fill:#FFFFFF;stroke:#263238;stroke-width:0.75;stroke-linecap:round;stroke-linejoin:round;stroke-miterlimit:10;" d="
						M483.713,346.069c0,0,1.034-1.659,2.948-2.042c1.914-0.383,9.569-2.297,10.782-3.19"/>
					
						<path style="fill:#FFFFFF;stroke:#263238;stroke-width:0.75;stroke-linecap:round;stroke-linejoin:round;stroke-miterlimit:10;" d="
						M483.725,340.284c0,0,1.403-0.723,2.935-0.978c1.531-0.255,9.385-2.485,12.029-2.2"/>
					
						<path style="fill:#FFFFFF;stroke:#263238;stroke-width:0.75;stroke-linecap:round;stroke-linejoin:round;stroke-miterlimit:10;" d="
						M499.547,353.575c0,0-1.845-1.466-2.836-1.041c-0.992,0.425-1.332,1.531-2.608,2.212"/>
					
						<path style="fill:#FFFFFF;stroke:#263238;stroke-width:0.75;stroke-linecap:round;stroke-linejoin:round;stroke-miterlimit:10;" d="
						M496.711,352.534c0,0,3.007-0.851,4.368-2.212"/>
				</g>
				
					<path style="fill:#263238;stroke:#263238;stroke-width:0.75;stroke-linecap:round;stroke-linejoin:round;stroke-miterlimit:10;" d="
					M577.502,335.798c-9.512-5.211-22.468,13.869-22.745,36.892c-0.277,23.023-0.555,27.183-0.555,27.183l-28.57-30.789
					c0,0-1.942,8.044-15.533,14.424c0,0,6.102,18.03,17.752,35.505c11.65,17.475,23.023,33.008,30.234,33.008
					c7.212,0,20.618-16.926,25.519-39.111C594.145,365.201,597.249,346.616,577.502,335.798z"/>
				<g>
					<path style="fill:none;stroke:#7F7F7F;stroke-width:0.75;stroke-linecap:round;stroke-linejoin:round;" d="M559.507,403.939
						c-0.523-0.431-0.065-1.271,0.577-1.054c4.214,1.428,11.767,5.285,16.586,15.295"/>
					<path style="fill:none;stroke:#7F7F7F;stroke-width:0.75;stroke-linecap:round;stroke-linejoin:round;" d="M570.29,422.063
						c0,0-1.69-8.826-8.315-15.816"/>
				</g>
				<g>
					<path style="fill:none;stroke:#7F7F7F;stroke-width:0.75;stroke-linecap:round;stroke-linejoin:round;" d="M579.361,404.733
						c0.721,0.696,1.443,1.463,2.164,2.305"/>
					<path style="fill:none;stroke:#7F7F7F;stroke-width:0.75;stroke-linecap:round;stroke-linejoin:round;" d="M559.279,399.041
						c0,0,8.513-3.627,17.929,3.806"/>
				</g>
				<g>
					<path style="fill:none;stroke:#7F7F7F;stroke-width:0.75;stroke-linecap:round;stroke-linejoin:round;" d="M556.783,374.925
						c-0.27,1.422-0.486,2.896-0.639,4.422"/>
					<path style="fill:none;stroke:#7F7F7F;stroke-width:0.75;stroke-linecap:round;stroke-linejoin:round;" d="M570.402,348.835
						c0,0-8.335,7.509-12.372,20.981"/>
				</g>
				<path style="fill:#858585;" d="M520.084,390.35c0,1.072-0.869,1.942-1.942,1.942s-1.942-0.869-1.942-1.942
					c0-1.072,0.869-1.942,1.942-1.942S520.084,389.277,520.084,390.35z"/>
				<path style="fill:#858585;" d="M523.968,398.156c0,1.072-0.869,1.942-1.942,1.942c-1.072,0-1.942-0.869-1.942-1.942
					c0-1.072,0.869-1.942,1.942-1.942C523.099,396.214,523.968,397.084,523.968,398.156z"/>
				
					<line style="fill:none;stroke:#7F7F7F;stroke-width:0.75;stroke-linecap:round;stroke-linejoin:round;" x1="549.671" y1="394.99" x2="525.632" y2="369.084"/>
				<g>
					<path style="fill:none;stroke:#7F7F7F;stroke-width:0.75;stroke-linecap:round;stroke-linejoin:round;" d="M564.763,340.734
						c-5.486,6.759-9.846,18.704-10.006,31.956c-0.277,23.023-0.555,27.183-0.555,27.183"/>
					<path style="fill:none;stroke:#7F7F7F;stroke-width:0.75;stroke-linecap:round;stroke-linejoin:round;" d="M571.013,335.619
						c-1.291,0.547-2.581,1.409-3.839,2.547"/>
				</g>
				<path style="fill:none;stroke:#7F7F7F;stroke-width:0.75;stroke-linecap:round;stroke-linejoin:round;" d="M568.963,444.414
					c4.772-5.751,9.595-14.378,12.783-24.544"/>
				<path style="fill:none;stroke:#7F7F7F;stroke-width:0.75;stroke-linecap:round;stroke-linejoin:round;" d="M510.099,383.508
					c0,0,6.102,18.03,17.752,35.505c6.741,10.111,13.389,19.572,19.192,25.751"/>
			</g>
		</g>
		<g>
			<path style="fill:#CBF2D6;stroke:#263238;stroke-linecap:round;stroke-linejoin:round;stroke-miterlimit:10;" d="
				M525.053,447.115h-44.826v4.068h44.465c0.928,0,1.68-0.752,1.68-1.68v-1.07C526.372,447.706,525.781,447.115,525.053,447.115z"/>
			
				<path style="fill:#263238;stroke:#263238;stroke-width:0.75;stroke-linecap:round;stroke-linejoin:round;stroke-miterlimit:10;" d="
				M458.628,379.804h5.63c1.772,0,3.331,1.171,3.826,2.872l18.429,63.411c0.741,2.549-1.171,5.096-3.826,5.096h-4.883
				L458.628,379.804z"/>
			
				<path style="fill:#92E3A9;stroke:#263238;stroke-width:0.75;stroke-linecap:round;stroke-linejoin:round;stroke-miterlimit:10;" d="
				M399.02,451.183h81.725c2.654,0,4.566-2.547,3.826-5.096l-18.429-63.411c-0.494-1.702-2.054-2.872-3.826-2.872h-81.725
				c-2.654,0-4.566,2.547-3.826,5.096l18.429,63.411C395.689,450.013,397.248,451.183,399.02,451.183z"/>
		</g>
		<g>
			<defs>
				<path id="XMLID_15_" d="M388.259,253.414h-117.53c-2.44,0-4.417-1.978-4.417-4.417v-9.31c0-2.439,1.978-4.417,4.417-4.417
					h117.53c2.44,0,4.417,1.978,4.417,4.417v9.31C392.676,251.436,390.698,253.414,388.259,253.414z"/>
			</defs>
			<use xlink:href="#XMLID_15_"  style="overflow:visible;fill:#92E3A9;"/>
			<clipPath id="XMLID_00000106107710403921144000000015531508300487114396_">
				<use xlink:href="#XMLID_15_"  style="overflow:visible;"/>
			</clipPath>
			<path style="opacity:0.5;clip-path:url(#XMLID_00000106107710403921144000000015531508300487114396_);fill:#FFFFFF;" d="
				M388.259,253.414h-117.53c-2.44,0-4.417-1.978-4.417-4.417v-9.31c0-2.439,1.978-4.417,4.417-4.417h117.53
				c2.44,0,4.417,1.978,4.417,4.417v9.31C392.676,251.436,390.698,253.414,388.259,253.414z"/>
			
				<use xlink:href="#XMLID_15_"  style="overflow:visible;fill:none;stroke:#263238;stroke-width:0.75;stroke-linecap:round;stroke-linejoin:round;stroke-miterlimit:10;"/>
		</g>
		<g>
			<path style="fill:#263238;" d="M324.398,246.101v-5.003c0-1.437,0.745-2.289,2.156-2.289c1.41,0,2.156,0.852,2.156,2.289v0.985
				h-1.384v-1.077c0-0.613-0.293-0.866-0.732-0.866c-0.439,0-0.732,0.252-0.732,0.866v5.202c0,0.612,0.293,0.852,0.732,0.852
				c0.439,0,0.732-0.24,0.732-0.852v-1.423h1.384v1.317c0,1.437-0.745,2.289-2.156,2.289
				C325.143,248.389,324.398,247.538,324.398,246.101z"/>
			<path style="fill:#263238;" d="M331.187,244.117h-1.783v-1.037h1.783v-1.797h1.038v1.797h1.783v1.037h-1.783v1.824h-1.038
				V244.117z"/>
			<path style="fill:#263238;" d="M336.513,244.117h-1.783v-1.037h1.783v-1.797h1.038v1.797h1.783v1.037h-1.783v1.824h-1.038
				V244.117z"/>
		</g>
	</g>
</g>
<g id="Character_1">
	<g>
		
			<path style="fill:#92E3A9;stroke:#263238;stroke-width:0.75;stroke-linecap:round;stroke-linejoin:round;stroke-miterlimit:10;" d="
			M382.92,168.585l-116.193,17.684c-2.412,0.367-4.664-1.291-5.031-3.702l-1.401-9.204c-0.367-2.412,1.291-4.664,3.702-5.031
			l116.192-17.684c2.412-0.367,4.664,1.29,5.032,3.702l1.401,9.204C386.989,165.965,385.331,168.218,382.92,168.585z"/>
		<g>
			<g>
				<g>
					<defs>
						<path id="XMLID_88_" d="M92.558,234.085c0,0-10.264,5.073-12.594,15.267c0,0-2.912-2.913-4.078,9.611
							c0,0-25.921,48.056-26.212,68.735c-0.291,20.679,48.639,54.172,48.639,54.172s5.243-6.99,4.078-13.397
							c0,0-18.931-35.824-28.542-40.193c0,0,10.776-26.212,18.057-31.164C99.187,292.166,92.558,234.085,92.558,234.085z"/>
					</defs>
					<use xlink:href="#XMLID_88_"  style="overflow:visible;fill:#263238;"/>
					<clipPath id="XMLID_00000126317170823290713680000004017952810680009384_">
						<use xlink:href="#XMLID_88_"  style="overflow:visible;"/>
					</clipPath>
					<path style="opacity:0.2;clip-path:url(#XMLID_00000126317170823290713680000004017952810680009384_);" d="M91.528,306.102
						c0,0-11.398-32.771-15.411-25.519c-4.014,7.252-14.369,44.432-8.452,49.882c5.917,5.45-3.698,5.754,0.74,12.999
						c4.438,7.244,33.286,34.36,36.244,33.561c2.959-0.798-10.71-46.56-10.71-46.56L91.528,306.102z"/>
					
						<use xlink:href="#XMLID_88_"  style="overflow:visible;fill:none;stroke:#263238;stroke-width:0.75;stroke-linecap:round;stroke-linejoin:round;stroke-miterlimit:10;"/>
				</g>
				<path style="fill:none;stroke:#7F7F7F;stroke-width:0.75;stroke-linecap:round;stroke-linejoin:round;" d="M79.079,260.891
					c0,0,0.965,15.023,4.449,23.564"/>
				<path style="fill:none;stroke:#7F7F7F;stroke-width:0.75;stroke-linecap:round;stroke-linejoin:round;" d="M71.929,331.245
					c0,0-5.46,5.856-13.031,5.062"/>
				
					<line style="fill:none;stroke:#7F7F7F;stroke-width:0.75;stroke-linecap:round;stroke-linejoin:round;" x1="93.384" y1="357.71" x2="93.939" y2="375.462"/>
			</g>
			<g>
				
					<path style="fill:#92E3A9;stroke:#263238;stroke-width:0.75;stroke-linecap:round;stroke-linejoin:round;stroke-miterlimit:10;" d="
					M180.737,388.861c0,0,12.232,38.359,14.563,57.333H95.692c0,0-0.876-45.012,2.913-59.372L180.737,388.861z"/>
				
					<path style="fill:none;stroke:#263238;stroke-width:0.75;stroke-linecap:round;stroke-linejoin:round;stroke-miterlimit:10;" d="
					M138.849,436.043c2.238,2.038,6.602,10.151,6.602,10.151"/>
				
					<path style="fill:none;stroke:#263238;stroke-width:0.75;stroke-linecap:round;stroke-linejoin:round;stroke-miterlimit:10;" d="
					M117.827,410.122c0,0,7.861,12.298,16.93,21.884"/>
			</g>
			
				<path style="fill:#263238;stroke:#263238;stroke-width:0.75;stroke-linecap:round;stroke-linejoin:round;stroke-miterlimit:10;" d="
				M144.913,158.191c0,0,7.572-6.796,5.825-11.067c-2.28-5.574-8.155,2.718-8.155,2.718s2.33-8.543-2.65-10.679
				c-5.33-2.286-9.777,7.767-9.777,7.767s-1.379-8.627-8.932-6.796c-6.408,1.553-1.165,8.738-6.408,11.068
				c-5.243,2.33-22.523,8.349-19.222,19.999c0,0-4.66-9.132-6.408-5.44c-1.748,3.692,4.272,8.741,6.602,9.323
				c0,0-3.689,7.767-0.777,9.902c2.913,2.136,2.33-5.631,2.33-5.631s1.898,21.403,22.523,32.62
				c20.625,11.217,20.068-26.018,20.068-26.018l5.174-16.698L144.913,158.191z"/>
			<g>
				<path style="fill:none;stroke:#7F7F7F;stroke-width:0.75;stroke-linecap:round;stroke-linejoin:round;" d="M118.644,156.638
					c-8.68,2.718-21.74,6.019-16.084,23.3"/>
				<path style="fill:none;stroke:#7F7F7F;stroke-width:0.75;stroke-linecap:round;stroke-linejoin:round;" d="M122.39,143.629
					c0,0,3.237,6.752-0.146,10.762"/>
			</g>
			<g>
				<g>
					<path style="fill:none;stroke:#7F7F7F;stroke-width:0.75;stroke-linecap:round;stroke-linejoin:round;" d="M112.485,190.617
						c0.461,1.102,0.978,2.244,1.555,3.428"/>
					<path style="fill:none;stroke:#7F7F7F;stroke-width:0.75;stroke-linecap:round;stroke-linejoin:round;" d="M135.528,150.643
						c-1.45,2.352-3.776,4.783-7.507,6.577c-8.976,4.316-23.17,9.292-17.205,28.809"/>
				</g>
				<path style="fill:none;stroke:#7F7F7F;stroke-width:0.75;stroke-linecap:round;stroke-linejoin:round;" d="M137.923,142.852
					c0,0,0.034,1.642-0.651,3.909"/>
			</g>
			<g>
				<path style="fill:none;stroke:#7F7F7F;stroke-width:0.75;stroke-linecap:round;stroke-linejoin:round;" d="M122.304,166.542
					c-4.606,3.534,2.048,8.233,4.746,14.173"/>
				<path style="fill:none;stroke:#7F7F7F;stroke-width:0.75;stroke-linecap:round;stroke-linejoin:round;" d="M148.02,149.065
					c0,0-8.543,11.65-20.97,15.339"/>
			</g>
			<g>
				<defs>
					<path id="XMLID_87_" d="M96.566,389.443c0,0-0.583-20.97-3.495-53.59c-2.913-32.62-19.222-97.86,3.495-103.685
						c22.717-5.825,68.044-9.485,83.297,5.242c16.892,16.31,4.078,107.18,3.495,122.907c-0.582,15.727,2.33,33.785,2.33,33.785
						S125.399,407.209,96.566,389.443z"/>
				</defs>
				<use xlink:href="#XMLID_87_"  style="overflow:visible;fill:#263238;"/>
				<clipPath id="XMLID_00000060007925974554350110000001858660265204132239_">
					<use xlink:href="#XMLID_87_"  style="overflow:visible;"/>
				</clipPath>
				<path style="opacity:0.2;clip-path:url(#XMLID_00000060007925974554350110000001858660265204132239_);" d="M88.114,326.055
					c0,0-8.737-56.839,21.281-60.104c30.019-3.265,69.581-1.893,73.741,23.185c4.16,25.077,13.328,85.097,13.328,85.097
					l6.206,27.135l-48.7,9.237l-65.098-6.982L88.114,326.055z"/>
				
					<use xlink:href="#XMLID_87_"  style="overflow:visible;fill:none;stroke:#263238;stroke-width:0.75;stroke-linecap:round;stroke-linejoin:round;stroke-miterlimit:10;"/>
			</g>
			
				<path style="fill:#FFFFFF;stroke:#263238;stroke-width:0.75;stroke-linecap:round;stroke-linejoin:round;stroke-miterlimit:10;" d="
				M143.942,223.431v-6.602c0,0,11.28,1.747,12.824-1.165c1.544-2.912-0.98-14.951-0.98-14.951s5.437,0.194,5.437-2.33
				c0-2.524-6.408-13.203-6.408-13.203s0.777-8.543,0-11.262c-0.777-2.718-8.737-18.058-8.737-18.058s-11.65,6.402-11.262,9.9
				c0.388,3.498,3.689,6.799,0.971,9.711c-2.718,2.912-6.408,10.772-5.243,14.512l-1.747,1.215c0,0-0.971-6.99-4.854-8.155
				c-3.883-1.165-6.99,6.602-4.272,12.038c2.718,5.437,5.825,4.466,5.825,4.466s-1.553,9.32-5.631,12.427l-1.222,9.708
				L143.942,223.431z"/>
			<ellipse style="fill:#263238;" cx="151.418" cy="183.044" rx="1.262" ry="2.33"/>
			<path style="fill:none;stroke:#263238;stroke-width:0.75;stroke-linecap:round;stroke-linejoin:round;stroke-miterlimit:10;" d="
				M142.777,198.966c0,0,0.912,2.524,8.222,2.912"/>
			<path style="fill:none;stroke:#263238;stroke-width:0.75;stroke-linecap:round;stroke-linejoin:round;stroke-miterlimit:10;" d="
				M151.418,176.453c0,0-3.98-0.593-5.339,3.485"/>
			
				<path style="fill:#263238;stroke:#263238;stroke-width:0.75;stroke-linecap:round;stroke-linejoin:round;stroke-miterlimit:10;" d="
				M110.934,232.605c0,0-7.767-10.534,0-11.699c7.767-1.165,39.61-3.883,44.658,0c5.048,3.883-7.767,2.718-8.543,9.32
				C146.272,236.829,110.934,232.605,110.934,232.605z"/>
			<g>
				
					<path style="fill:none;stroke:#263238;stroke-width:0.75;stroke-linecap:round;stroke-linejoin:round;stroke-miterlimit:10;" d="
					M158.857,184.961c0,3.745-1.092,6.78-2.439,6.78c-1.347,0-2.439-3.036-2.439-6.78c0-3.745,1.092-6.78,2.439-6.78
					C157.765,178.18,158.857,181.216,158.857,184.961z"/>
				<path style="fill:none;stroke:#263238;stroke-linecap:round;stroke-linejoin:round;stroke-miterlimit:10;" d="M158.318,180.714
					l-26.841,1.959c-1.934,0.141-3.748,0.859-5.232,2.022"/>
			</g>
			<g>
				
					<path style="fill:#FFFFFF;stroke:#263238;stroke-width:0.75;stroke-linecap:round;stroke-linejoin:round;stroke-miterlimit:10;" d="
					M239.301,206.492l6.339-14.118c0,0,3.696-15.311,6.63-18.649c2.934-3.338,7.687-9.345,9.204-7.678
					c1.096,1.204-0.265,5.298-2.683,8.454c-2.621,3.422-0.492,6.626,0.47,7.979c0.962,1.354,6.665,4.177,11.127,4.759
					c4.462,0.581,13.357-5.061,16.411-3.078c3.053,1.983-3.182,4.162-3.182,4.162s4.811-0.643,5.822,2.06
					c0.597,1.596-4.346,1.565-6.752,1.811c-2.406,0.245-7.31,0.955-7.31,0.955s8.787,1.122,8.673,3.521
					c-0.113,2.399-6.584,0.149-11.508,0.341c0,0,7.057,1.818,6.664,4.133c-0.392,2.315-4.116-0.122-10.043-1.144l-13.665-1.729
					l-4.311,15.936L239.301,206.492z"/>
				
					<path style="fill:none;stroke:#263238;stroke-width:0.75;stroke-linecap:round;stroke-linejoin:round;stroke-miterlimit:10;" d="
					M280.053,189.136c0,0-4.15,2.84-10.266,1.311c0,0,0.581,1.893,0,2.694c-0.581,0.801-0.51,2.403-1.966,3.422
					c-1.456,1.019-2.33,1.456-2.33,1.456"/>
				<g>
					<defs>
						<path id="XMLID_86_" d="M158.857,228.584c0,0,21.507,0.089,29.703,6.788c0,0,0.04-3.495,6.448,0c0,0,19.514-2.33,28.542,0
							c0,0,11.067-27.377,17.766-34.659c0,0,9.611,0.583,12.232,4.951c1.246,2.076-1.7,13.496-4.443,25.127
							c-3.029,12.84-6.065,25.937-8.663,27.007c-4.951,2.039-57.085,6.699-57.085,6.699l-24.501-12.815V228.584z"/>
					</defs>
					<use xlink:href="#XMLID_86_"  style="overflow:visible;fill:#263238;"/>
					<clipPath id="XMLID_00000011736152066261735360000006717754419169765010_">
						<use xlink:href="#XMLID_86_"  style="overflow:visible;"/>
					</clipPath>
					<path style="opacity:0.2;clip-path:url(#XMLID_00000011736152066261735360000006717754419169765010_);" d="M188.56,266.852
						c0,0-4.865-17.409,2.951-15.781c7.817,1.628,38.878,4.814,44.613-0.108c5.735-4.921,9.394-46.653,16.811-44.649
						c7.416,2.004,2.273,38.507,2.273,38.507s4.639,10.097-9.902,17.863c-14.541,7.767-14.541,7.767-14.541,7.767l-25.698,2.221
						L188.56,266.852z"/>
					
						<use xlink:href="#XMLID_86_"  style="overflow:visible;fill:none;stroke:#263238;stroke-width:0.75;stroke-linecap:round;stroke-linejoin:round;stroke-miterlimit:10;"/>
				</g>
				<path style="fill:none;stroke:#7F7F7F;stroke-width:0.75;stroke-linecap:round;stroke-linejoin:round;" d="M226.172,236.537
					c0,0,4.369,0.874,9.611,7.864"/>
				<path style="fill:none;stroke:#7F7F7F;stroke-width:0.75;stroke-linecap:round;stroke-linejoin:round;" d="M190.931,240.469
					c0,0,2.614,10.075,0,20.242"/>
				<path style="fill:none;stroke:#7F7F7F;stroke-width:0.75;stroke-linecap:round;stroke-linejoin:round;" d="M172.594,232.605
					c0,0,13.958,7.384,14.961,28.105"/>
			</g>
			<g>
				<path style="fill:none;stroke:#7F7F7F;stroke-width:0.75;stroke-linecap:round;stroke-linejoin:round;" d="M173.47,367
					c0.951-1.207,1.732-2.525,2.316-3.964"/>
				<path style="fill:none;stroke:#7F7F7F;stroke-width:0.75;stroke-linecap:round;stroke-linejoin:round;" d="M106.662,378.182
					c0,0,46.178,6.083,63.706-8.073"/>
			</g>
		</g>
		<g>
			<path style="fill:#263238;" d="M316.773,171.556l-0.814-4.936c-0.234-1.418,0.363-2.38,1.755-2.609
				c1.391-0.229,2.265,0.49,2.499,1.908l0.16,0.971l-1.366,0.225l-0.176-1.062c-0.099-0.606-0.429-0.807-0.862-0.735
				c-0.433,0.072-0.681,0.367-0.582,0.973l0.846,5.133c0.1,0.604,0.427,0.792,0.861,0.721c0.433-0.071,0.683-0.355,0.584-0.959
				l-0.231-1.404l1.365-0.225l0.214,1.298c0.234,1.418-0.362,2.38-1.754,2.609C317.88,173.693,317.006,172.974,316.773,171.556z"/>
			<path style="fill:#263238;" d="M321.664,170.695l-0.087-0.525l1.365-0.225l0.104,0.631c0.108,0.657,0.436,0.845,0.896,0.769
				c0.459-0.075,0.709-0.359,0.597-1.042c-0.126-0.762-0.495-1.201-1.576-1.871c-1.383-0.866-1.901-1.548-2.074-2.599
				c-0.238-1.443,0.372-2.407,1.776-2.638c1.405-0.232,2.239,0.494,2.482,1.964l0.063,0.382l-1.365,0.225l-0.078-0.473
				c-0.108-0.658-0.413-0.863-0.872-0.787c-0.459,0.076-0.681,0.368-0.577,0.997c0.11,0.67,0.493,1.106,1.575,1.778
				c1.383,0.864,1.885,1.536,2.073,2.679c0.247,1.497-0.376,2.462-1.794,2.697C322.754,172.889,321.906,172.165,321.664,170.695z"/>
			<path style="fill:#263238;" d="M326.551,169.89l-0.087-0.526l1.365-0.225l0.104,0.631c0.108,0.656,0.436,0.845,0.897,0.769
				c0.459-0.075,0.709-0.359,0.597-1.042c-0.126-0.762-0.495-1.2-1.577-1.87c-1.383-0.866-1.901-1.549-2.074-2.599
				c-0.238-1.444,0.372-2.407,1.776-2.639c1.405-0.231,2.239,0.494,2.482,1.964l0.063,0.382l-1.366,0.225l-0.078-0.473
				c-0.108-0.658-0.412-0.863-0.871-0.787c-0.459,0.075-0.681,0.368-0.577,0.997c0.11,0.67,0.493,1.106,1.575,1.777
				c1.383,0.864,1.885,1.536,2.073,2.679c0.246,1.497-0.376,2.463-1.794,2.696C327.64,172.083,326.793,171.361,326.551,169.89z"/>
		</g>
	</g>
</g>
<g id="Character_2">
	<g>
		<g>
			
				<path style="fill:#263238;stroke:#263238;stroke-width:0.75;stroke-linecap:round;stroke-linejoin:round;stroke-miterlimit:10;" d="
				M163.052,284.749c0,0-23.115,6.667-22.19,23.865c0.925,17.198,5.363,16.21-4.438,21.882c-9.801,5.671-0.555,16.397-3.329,21.205
				c-2.774,4.808-20.341,18.122-12.76,24.964c7.582,6.842,45.675-6.842,58.99,0s23.822-7.675,27.36-11.435
				c3.538-3.76-6.833-9.091-6.464-16.673c0.37-7.582,7.027-49.466-1.479-55.06C190.235,287.902,170.4,281.688,163.052,284.749z"/>
			<g>
				<g>
					
						<path style="fill:#FFFFFF;stroke:#263238;stroke-width:0.75;stroke-linecap:round;stroke-linejoin:round;stroke-miterlimit:10;" d="
						M245.306,312.496l4.243-15.395c0,0,1.664-10.54,3.051-12.621c1.387-2.08,4.993-4.993,4.993-4.993s2.597-3.606,4.419-5.132
						c1.822-1.526,12.501-7.073,13.333-6.657c0.832,0.416,2.15,2.913-4.785,6.796c0,0,3.814-0.277,6.865,0.971
						c3.051,1.248,5.132,1.595,3.814,2.913c-1.318,1.318-2.427,1.942-7.351,0.624c0,0-3.467,0.416-6.241,0.208l-1.526,1.803
						c0,0,2.358-1.04,3.745,1.179c1.387,2.219,2.982,4.993,2.288,6.588c0,0,5.34-2.774,6.796-0.485
						c1.456,2.288-3.051,4.369-4.854,5.756c-1.803,1.387-6.172,5.132-6.172,5.132s-3.121,7.004-9.639,9.57
						c0,0-1.416,2.913-0.693,5.617L245.306,312.496z"/>
					
						<polyline style="fill:none;stroke:#263238;stroke-width:0.75;stroke-linecap:round;stroke-linejoin:round;stroke-miterlimit:10;" points="
						267.162,276.368 264.874,278.24 262.308,282.678 260.574,288.503 					"/>
					
						<path style="fill:none;stroke:#263238;stroke-width:0.75;stroke-linecap:round;stroke-linejoin:round;stroke-miterlimit:10;" d="
						M259.118,288.503c0,0,3.637,4.369,6.222,4.993c0,0,2.724-1.179,3.278-1.664c0.459-0.402,1.157-1.185,2.564-2.308"/>
					
						<path style="fill:none;stroke:#263238;stroke-width:0.75;stroke-linecap:round;stroke-linejoin:round;stroke-miterlimit:10;" d="
						M263.14,288.156l0.334-1.179c0,0,1.816,0.416,3.272,0l0.832,1.179C267.578,288.156,265.706,287.81,263.14,288.156z"/>
					
						<path style="fill:none;stroke:#263238;stroke-width:0.75;stroke-linecap:round;stroke-linejoin:round;stroke-miterlimit:10;" d="
						M266.815,283.233c0,0-0.618,1.16-0.485,2.982"/>
					
						<path style="fill:none;stroke:#263238;stroke-width:0.75;stroke-linecap:round;stroke-linejoin:round;stroke-miterlimit:10;" d="
						M268.965,286.977c0,0-2.792,2.154-2.402,5.966"/>
					
						<polyline style="fill:none;stroke:#263238;stroke-width:0.75;stroke-linecap:round;stroke-linejoin:round;stroke-miterlimit:10;" points="
						264.666,282.123 263.14,283.788 263.14,285.66 					"/>
				</g>
				<g>
					<defs>
						<path id="XMLID_7_" d="M192.243,360.569c0,0,34.876,0.888,39.892,4.577c0,0-3.139-5.048,2.492-3.398
							c0,0,0.388-42.814,7.961-43.396l2.52-9.744c0.189-0.73,1.026-1.077,1.668-0.681c2.092,1.292,6.426,3.628,10.454,3.675
							c0.606,0.007,1.086,0.511,1.086,1.117v8.351c0,0,3.883,0.971,3.689,6.602c-0.194,5.631-3.745,56.141-10.152,61.606
							c-6.408,5.465-51.454,2.747-51.454,2.747S189.331,381.345,192.243,360.569z"/>
					</defs>
					<use xlink:href="#XMLID_7_"  style="overflow:visible;fill:#92E3A9;"/>
					<clipPath id="XMLID_00000011005120205340369110000017793726366885219768_">
						<use xlink:href="#XMLID_7_"  style="overflow:visible;"/>
					</clipPath>
					<path style="opacity:0.2;clip-path:url(#XMLID_00000011005120205340369110000017793726366885219768_);" d="M203.102,371.83
						c0,0,10.711,16.935,27.631,15.334c16.92-1.601,11.949-7.98,14.573-10.477c2.624-2.496,10.992,1.211,15.268-30.323
						c4.276-31.533,13.181,22.164,13.181,22.164l-2.573,26.188l-15.974,11.65l-15.006,2.932l-35.136,2.869l-10.62-29.938
						L203.102,371.83z"/>
					
						<use xlink:href="#XMLID_7_"  style="overflow:visible;fill:none;stroke:#263238;stroke-width:0.75;stroke-linecap:round;stroke-linejoin:round;stroke-miterlimit:10;"/>
				</g>
				
					<path style="fill:none;stroke:#263238;stroke-width:0.75;stroke-linecap:round;stroke-linejoin:round;stroke-miterlimit:10;" d="
					M236.125,369.889c0,0,2.524,1.942,4.077,7.961"/>
				
					<path style="fill:none;stroke:#263238;stroke-width:0.75;stroke-linecap:round;stroke-linejoin:round;stroke-miterlimit:10;" d="
					M238.163,365.229c0,0,5.145,2.33,8.252,6.602"/>
				
					<path style="fill:none;stroke:#263238;stroke-width:0.75;stroke-linecap:round;stroke-linejoin:round;stroke-miterlimit:10;" d="
					M245.306,319.711c0,0,3.301,2.33,9.902,3.107"/>
			</g>
			<g>
				<defs>
					<path id="XMLID_6_" d="M129.027,446.194c0,0-26.998-56.955-6.287-75.078c20.711-18.122,64.352-13.314,71.749-11.095
						c7.397,2.219,14.794,23.67,15.163,35.135c0.37,11.465,7.642,11.307-2.714,51.038H129.027z"/>
				</defs>
				<use xlink:href="#XMLID_6_"  style="overflow:visible;fill:#92E3A9;"/>
				<clipPath id="XMLID_00000044881137076775878150000006558001427120292232_">
					<use xlink:href="#XMLID_6_"  style="overflow:visible;"/>
				</clipPath>
				<path style="opacity:0.2;clip-path:url(#XMLID_00000044881137076775878150000006558001427120292232_);" d="M137.81,403.823
					c0,0,13.974-15.295,14.892-10.258c0.918,5.036-16.279,34.161,1.473,41.928c17.752,7.767,30.336-0.832,40.271,0
					c9.935,0.832,14.272,6.833,24.447,7.439c10.175,0.605,7.989,15.029,7.989,15.029l-28.326,6.102h-58.805l-21.301-5.27
					l-5.883-10.38v-23.3L137.81,403.823z"/>
				
					<use xlink:href="#XMLID_6_"  style="overflow:visible;fill:none;stroke:#263238;stroke-width:0.75;stroke-linecap:round;stroke-linejoin:round;stroke-miterlimit:10;"/>
			</g>
			<g>
				
					<path style="fill:#FFFFFF;stroke:#263238;stroke-width:0.75;stroke-linecap:round;stroke-linejoin:round;stroke-miterlimit:10;" d="
					M155.655,409.395l16.458-5.386c0,0,6.842-10.887,10.355-13.661c3.513-2.774,5.727-3.695,9.246-2.034l5.917-0.827
					c0,0,2.503-3.175,5.363-2.501c2.86,0.674,13.314,3.883,12.205,6.102c-1.11,2.219-9.986-1.849-11.28-0.74
					c0,0,2.913,5.224,2.913,8.414c0,3.19,0.832,8.044-0.971,8.044c-1.803,0-3.328-2.015-3.19-4.613c0,0-0.555,5.723-2.358,5.446
					c-1.803-0.277-3.051-1.803-2.774-4.161c0,0-4.161,12.898-14.701,12.759l-19.139,7.767
					C163.699,424.003,159.816,423.079,155.655,409.395z"/>
				
					<path style="fill:none;stroke:#263238;stroke-width:0.75;stroke-linecap:round;stroke-linejoin:round;stroke-miterlimit:10;" d="
					M186.583,403.477c0,0,2.497-4.993,1.803-7.35l3.606-1.387c0,0,1.526,2.08,2.635,1.526l-0.555,2.843c0,0-2.774,3.397-1.248,5.339
					c1.525,1.942,3.745-2.496,4.993-3.744c1.248-1.248,1.526-6.75,0.555-8.506c-0.971-1.757-4.548-1.572-5.602-2.727"/>
				
					<path style="fill:none;stroke:#263238;stroke-width:0.75;stroke-linecap:round;stroke-linejoin:round;stroke-miterlimit:10;" d="
					M198.002,388.314c0,0,3.144-0.37,4.068,1.156c0.925,1.526,1.849,5.132,1.664,6.981c-0.185,1.849-0.832,4.623-0.832,4.623"/>
				
					<line style="fill:none;stroke:#263238;stroke-width:0.75;stroke-linecap:round;stroke-linejoin:round;stroke-miterlimit:10;" x1="198.002" y1="402.192" x2="198.563" y2="399.107"/>
				
					<path style="fill:none;stroke:#263238;stroke-width:0.75;stroke-linecap:round;stroke-linejoin:round;stroke-miterlimit:10;" d="
					M200.88,388.585c0,0,1.786-0.783,3.039,1.763"/>
				
					<polygon style="fill:none;stroke:#263238;stroke-width:0.75;stroke-linecap:round;stroke-linejoin:round;stroke-miterlimit:10;" points="
					194.355,397.662 192.769,398.299 193.562,399.822 194.072,399.108 				"/>
				
					<path style="fill:none;stroke:#263238;stroke-width:0.75;stroke-linecap:round;stroke-linejoin:round;stroke-miterlimit:10;" d="
					M177.106,411.429c0,0,0.74,1.849,4.068,3.698"/>
			</g>
			<g>
				<defs>
					<path id="XMLID_5_" d="M163.237,338.2l-5.363,15.718c0,0,11.465,12.205,21.451,13.129l4.068,4.783l4.439-5.337l-1.111-6.842
						l-1.793-2.89l-1.536-0.5l3.144-8.63l-10.039-13.684h-9.748L163.237,338.2z"/>
				</defs>
				<use xlink:href="#XMLID_5_"  style="overflow:visible;fill:#FFFFFF;"/>
				<clipPath id="XMLID_00000036212936262221992520000008436228861838573445_">
					<use xlink:href="#XMLID_5_"  style="overflow:visible;"/>
				</clipPath>
				
					<path style="clip-path:url(#XMLID_00000036212936262221992520000008436228861838573445_);fill:#263238;stroke:#263238;stroke-width:0.75;stroke-linecap:round;stroke-linejoin:round;stroke-miterlimit:10;" d="
					M186.537,347.631l-10.039-13.684h-9.748l-1.144,1.385c0.675,3.121,2.098,8.434,4.473,11.559
					c2.529,3.327,9.652,7.133,13.447,9.005L186.537,347.631z"/>
				
					<use xlink:href="#XMLID_5_"  style="overflow:visible;fill:none;stroke:#263238;stroke-width:0.75;stroke-linecap:round;stroke-linejoin:round;stroke-miterlimit:10;"/>
			</g>
			
				<path style="fill:#FFFFFF;stroke:#263238;stroke-width:0.75;stroke-linecap:round;stroke-linejoin:round;stroke-miterlimit:10;" d="
				M166.011,330.495c0,0,1.85,11.404,6.843,15.102c4.992,3.698,22.93,10.515,26.258,7.292c3.328-3.223,6.657-13.579,7.397-18.942
				s-1.109-14.193-0.74-19.579c0.37-5.386,0.74-14.447-6.657-17.221c-7.397-2.774-34.4,10.613-34.4,10.613l-1.66,10.284
				L166.011,330.495z"/>
			<path style="fill:none;stroke:#263238;stroke-width:0.75;stroke-linecap:round;stroke-linejoin:round;stroke-miterlimit:10;" d="
				M200.868,314.369c0,0-1.109,4.508,0,6.172c0.751,1.127,2.711,3.844,3.898,5.481c0.519,0.716,0.347,1.711-0.375,2.223
				c-1.423,1.008-3.538,2.63-4.016,3.669c-0.145,0.315,0,1.387,0,1.387"/>
			<path style="fill:none;stroke:#263238;stroke-width:0.75;stroke-linecap:round;stroke-linejoin:round;stroke-miterlimit:10;" d="
				M200.483,336.105c0,0-4.967,3.992-10.025-1.115"/>
			<path style="fill:none;stroke:#263238;stroke-width:0.75;stroke-linecap:round;stroke-linejoin:round;stroke-miterlimit:10;" d="
				M186.537,316.102c0,0,2.196-4.854,9.928-2.358"/>
			<path style="fill:none;stroke:#263238;stroke-width:0.75;stroke-linecap:round;stroke-linejoin:round;stroke-miterlimit:10;" d="
				M201.175,313.031c0,0,1.774-1.823,3.854,0"/>
			<path style="fill:#263238;" d="M194.41,317.921c0.308,1.148,0.095,2.203-0.475,2.355c-0.57,0.153-1.281-0.654-1.589-1.803
				c-0.308-1.148-0.095-2.203,0.474-2.355C193.391,315.966,194.103,316.773,194.41,317.921z"/>
			<path style="fill:#263238;" d="M204.927,316.75c0.223,1.047-0.018,1.984-0.537,2.095c-0.519,0.11-1.12-0.648-1.343-1.695
				c-0.222-1.046,0.018-1.984,0.537-2.095C204.104,314.944,204.705,315.703,204.927,316.75z"/>
			
				<path style="fill:#263238;stroke:#263238;stroke-width:0.75;stroke-linecap:round;stroke-linejoin:round;stroke-miterlimit:10;" d="
				M191.755,283.892c0,0,9.42-5.397,23.58,7.131c12.792,11.318-2.85,4.83-2.85,4.83s6.503,12.145-0.429,14.644
				c-7.027,2.533-3.144-4.844-18.677-8.357c0,0,6.932,5.62,2.177,8.899c-6.096,4.205-10.129-2.982-14.937-1.318
				c0,0-2.588,14.239-7.766,16.643c0,0-5.04,19.09-11.674,17.866c-6.633-1.223,1.503-3.812-2.195-15.462
				c-3.699-11.65-11.65-22.653-5.548-35.273C159.538,280.875,181.439,279.511,191.755,283.892z"/>
			<g>
				
					<path style="fill:#92E3A9;stroke:#263238;stroke-width:0.75;stroke-linecap:round;stroke-linejoin:round;stroke-miterlimit:10;" d="
					M132.724,367.958c-5.224,0.083-9.951,2.015-12.204,5.377c-8.243,12.298-18.492,35.135-25.149,50.298
					c-6.657,15.163-3.329,24.409,0,25.519c3.329,1.109,15.163,4.808,38.094-6.287c22.93-11.095,20.711-13.314,20.711-13.314
					l13.152-6.07c0.521-0.241,0.585-0.948,0.119-1.283c-2.088-1.501-6.307-5.739-6.598-15.599c-0.015-0.522-0.536-0.878-1.02-0.682
					l-12.31,4.962c0,0-1.849-2.038-12.575,2.03c0,0,10.725-7.767,15.533-13.684c2.264-2.787,2.97-8.034,2.195-13.348"/>
				
					<path style="fill:none;stroke:#263238;stroke-width:0.75;stroke-linecap:round;stroke-linejoin:round;stroke-miterlimit:10;" d="
					M112.569,420.49c3.548-2.936,18.492-4.438,18.677-6.657c0.185-2.219-12.575,3.144-12.39,0"/>
				
					<path style="fill:none;stroke:#263238;stroke-width:0.75;stroke-linecap:round;stroke-linejoin:round;stroke-miterlimit:10;" d="
					M142.526,391.087c0,0,3.707,5.902,3.698,9.246c-0.009,3.344,4.438-5.363,4.438-9.246"/>
				
					<path style="fill:none;stroke:#263238;stroke-width:0.75;stroke-linecap:round;stroke-linejoin:round;stroke-miterlimit:10;" d="
					M148.258,413.277c0,0-0.37,4.439,3.698,11.835"/>
			</g>
			
				<path style="fill:#92E3A9;stroke:#263238;stroke-width:0.75;stroke-linecap:round;stroke-linejoin:round;stroke-miterlimit:10;" d="
				M146.031,359.824c0,0,3.8-11.248,8.238-9.594c4.438,1.654,26.074,11.034,29.125,21.6c0,0-4.438-5.85-8.321,0
				S167.473,372.478,146.031,359.824z"/>
			
				<path style="fill:#92E3A9;stroke:#263238;stroke-width:0.75;stroke-linecap:round;stroke-linejoin:round;stroke-miterlimit:10;" d="
				M184.929,356.761c0.508,2.113,1.661,8.655-1.536,15.069c0,0,3.329-4.274,7.212-1.361c3.883,2.913,0.003-9.252-1.803-11.55
				c-0.653-0.831-3.455-2.433-3.455-2.433C185.145,356.343,184.871,356.52,184.929,356.761z"/>
			<path style="fill:none;stroke:#263238;stroke-width:0.75;stroke-linecap:round;stroke-linejoin:round;stroke-miterlimit:10;" d="
				M183.393,356.261c0,0-1.156,3.683,0,5.883"/>
			<g>
				<path style="fill:#858585;stroke:#263238;stroke-linecap:round;stroke-linejoin:round;stroke-miterlimit:10;" d="
					M169.079,447.115h44.826v4.068H169.44c-0.928,0-1.68-0.752-1.68-1.68v-1.07C167.76,447.706,168.351,447.115,169.079,447.115z"/>
				
					<path style="fill:#263238;stroke:#263238;stroke-width:0.75;stroke-linecap:round;stroke-linejoin:round;stroke-miterlimit:10;" d="
					M235.504,379.804h-5.63c-1.772,0-3.331,1.171-3.826,2.872l-18.429,63.411c-0.741,2.549,1.171,5.096,3.826,5.096h4.883
					L235.504,379.804z"/>
				<path style="fill:#858585;stroke:#263238;stroke-linecap:round;stroke-linejoin:round;stroke-miterlimit:10;" d="
					M307.316,451.183h-93.93c-2.654,0-4.566-2.547-3.826-5.096l18.429-63.411c0.494-1.702,2.054-2.872,3.826-2.872h93.93
					c2.654,0,4.566,2.547,3.826,5.096l-18.429,63.411C310.647,450.013,309.089,451.183,307.316,451.183z"/>
			</g>
			
				<path style="fill:#263238;stroke:#263238;stroke-width:0.75;stroke-linecap:round;stroke-linejoin:round;stroke-miterlimit:10;" d="
				M165.606,335.332c0,0-7.547,11.79-3.109,22.412c4.438,10.622,0.555,16.124-4.623,12.144c-5.188-3.988-7.582-8.352-30.882-4.66
				l15.533-15.165l10.54-14.129l9.87-4.646L165.606,335.332z"/>
			<g>
				<path style="fill:none;stroke:#7F7F7F;stroke-width:0.75;stroke-linecap:round;stroke-linejoin:round;" d="M211.55,302.144
					c0.713,1.341,1.011,2.567,0.927,3.535"/>
				<path style="fill:none;stroke:#7F7F7F;stroke-width:0.75;stroke-linecap:round;stroke-linejoin:round;" d="M181.174,289.96
					c13.995-0.229,22.806,3.986,27.398,8.376"/>
				<path style="fill:none;stroke:#7F7F7F;stroke-width:0.75;stroke-linecap:round;stroke-linejoin:round;" d="M141.873,350.333
					c0.623-2.196,0.936-4.857,0.652-8.041c-1.109-12.482,8.876-8.247,11.095-24.095c2.008-14.345,4.396-25.553,21.629-27.824"/>
				<path style="fill:none;stroke:#7F7F7F;stroke-width:0.75;stroke-linecap:round;stroke-linejoin:round;" d="M135.591,359.203
					c0,0,1.991-1.096,3.855-3.734"/>
			</g>
			<g>
				<path style="fill:none;stroke:#7F7F7F;stroke-width:0.75;stroke-linecap:round;stroke-linejoin:round;" d="M155.387,358.664
					c0.416,1.145,0.933,2.306,1.563,3.48"/>
				<g>
					<path style="fill:none;stroke:#7F7F7F;stroke-width:0.75;stroke-linecap:round;stroke-linejoin:round;" d="M167.744,300.232
						c-6.811,5.987-0.808,17.751-4.045,25.018c-2.991,6.717-11.003,16.554-9.555,28.278"/>
					<path style="fill:none;stroke:#7F7F7F;stroke-width:0.75;stroke-linecap:round;stroke-linejoin:round;" d="M193.379,306.927
						c0,0-9.385-13.592-21.867-8.876"/>
				</g>
			</g>
		</g>
		<g>
			<defs>
				<path id="XMLID_4_" d="M394.391,287.728h-117.53c-2.439,0-4.417-1.978-4.417-4.417V274c0-2.44,1.978-4.417,4.417-4.417h117.53
					c2.44,0,4.417,1.978,4.417,4.417v9.31C398.809,285.75,396.831,287.728,394.391,287.728z"/>
			</defs>
			<use xlink:href="#XMLID_4_"  style="overflow:visible;fill:#FFFFFF;"/>
			<clipPath id="XMLID_00000121273145981214214560000005514873357827575190_">
				<use xlink:href="#XMLID_4_"  style="overflow:visible;"/>
			</clipPath>
			<path style="opacity:0.3;clip-path:url(#XMLID_00000121273145981214214560000005514873357827575190_);" d="M394.391,287.728
				h-117.53c-2.439,0-4.417-1.978-4.417-4.417V274c0-2.44,1.978-4.417,4.417-4.417h117.53c2.44,0,4.417,1.978,4.417,4.417v9.31
				C398.809,285.75,396.831,287.728,394.391,287.728z"/>
			
				<use xlink:href="#XMLID_4_"  style="overflow:visible;fill:none;stroke:#263238;stroke-width:0.75;stroke-linecap:round;stroke-linejoin:round;stroke-miterlimit:10;"/>
		</g>
		<g>
			<path style="fill:#263238;" d="M326.78,273.573h2.156c1.464,0,2.182,0.811,2.182,2.301v0.919c0,1.49-0.719,2.303-2.182,2.303
				h-0.692v3.792h-1.464V273.573z M328.936,277.765c0.466,0,0.718-0.213,0.718-0.879v-1.104c0-0.665-0.253-0.878-0.718-0.878h-0.692
				v2.862H328.936z"/>
			<path style="fill:#263238;" d="M331.92,273.573h1.464v3.792h1.57v-3.792h1.464v9.314h-1.464v-4.192h-1.57v4.192h-1.464V273.573z"
				/>
			<path style="fill:#263238;" d="M337.512,273.573h2.156c1.464,0,2.182,0.811,2.182,2.301v0.919c0,1.49-0.718,2.303-2.182,2.303
				h-0.692v3.792h-1.464V273.573z M339.667,277.765c0.465,0,0.719-0.213,0.719-0.879v-1.104c0-0.665-0.254-0.878-0.719-0.878h-0.692
				v2.862H339.667z"/>
		</g>
	</g>
</g>
</svg>
